<svg width="294" height="284" viewBox="0 0 294 284" fill="none" xmlns="http://www.w3.org/2000/svg">
<g clip-path="url(#clip0_125_3088)">
<path d="M147 283.76C228.186 283.76 294 220.238 294 141.88C294 63.5218 228.186 0 147 0C65.8141 0 0 63.5218 0 141.88C0 220.238 65.8141 283.76 147 283.76Z" fill="#626F34"/>
<path d="M146.854 91.5444C106.081 91.5444 73 124.625 73 165.399C73 206.173 106.081 239.253 146.854 239.253C187.628 239.253 220.709 206.173 220.709 165.399C220.709 124.625 187.628 91.5444 146.854 91.5444ZM147.778 185.709C137.561 185.709 129.253 177.4 129.253 167.184C129.253 156.967 137.561 148.659 147.778 148.659C157.994 148.659 166.303 156.967 166.303 167.184C166.303 177.4 157.994 185.709 147.778 185.709Z" fill="#DDA873"/>
<mask id="mask0_125_3088" style="mask-type:luminance" maskUnits="userSpaceOnUse" x="73" y="91" width="148" height="149">
<path d="M146.854 91.5444C106.081 91.5444 73 124.625 73 165.399C73 206.173 106.081 239.253 146.854 239.253C187.628 239.253 220.709 206.173 220.709 165.399C220.709 124.625 187.628 91.5444 146.854 91.5444ZM147.778 185.709C137.561 185.709 129.253 177.4 129.253 167.184C129.253 156.967 137.561 148.659 147.778 148.659C157.994 148.659 166.303 156.967 166.303 167.184C166.303 177.4 157.994 185.709 147.778 185.709Z" fill="white"/>
</mask>
<g mask="url(#mask0_125_3088)">
<path d="M104.512 184.724C105.25 186.14 106.112 187.463 107.066 188.724C114.667 199.618 133.777 193.371 129.561 179.246C128.084 174.354 128.022 170.476 130.392 165.799L107.466 159.583C106.727 176.877 109.466 195.956 126.576 204.511C141.008 211.742 151.533 192.602 139.008 183.247L135.869 180.477L120.945 199.803C141.408 211.958 168.15 205.496 179.29 183.801C192.491 158.136 170.981 136.719 147.994 128.071C133.13 122.502 126.73 146.289 141.439 151.797C150.179 155.09 163.165 163.306 156.702 173.738C151.409 182.293 141.47 183.308 133.377 178.508C121.529 171.461 108.081 188.171 118.452 197.833C121.068 200.264 123.714 202.326 126.576 204.449L139.008 183.185C130.453 178.908 131.746 167.737 132.115 159.521C132.638 147.551 114.698 142.442 109.189 153.305C103.681 164.168 102.512 174.354 105.897 185.709L128.391 176.231C127.438 174.969 126.576 173.615 125.837 172.23C117.867 158.536 96.5725 170.938 104.573 184.662L104.512 184.724Z" fill="#DDA873"/>
<path d="M125.037 135.58C124.606 136.134 124.206 136.657 123.713 137.149C123.713 137.149 121.467 139.304 122.698 138.226C123.775 137.273 122.144 138.627 121.898 138.78C121.19 139.242 120.482 139.704 119.744 140.165C117.159 141.735 114.543 143.181 112.081 144.966C104.388 150.628 99.9876 158.198 99.926 167.891C99.8337 183.739 124.452 183.739 124.544 167.891C124.637 166.322 124.544 166.23 124.36 167.614C124.483 166.937 124.667 166.26 124.913 165.583C124.298 166.999 124.329 167.091 124.975 165.891C123.96 167.091 123.929 167.184 124.821 166.168C125.221 165.83 127.621 164.045 125.283 165.645C126.391 164.906 127.498 164.199 128.637 163.491C133.591 160.506 138.792 157.583 142.423 152.967C146.516 147.735 147.531 140.658 142.423 135.549C138.177 131.303 129.129 130.287 125.006 135.549L125.037 135.58Z" fill="#DDA873"/>
<path d="M143.745 192.171C142.36 191.679 140.975 191.156 139.621 190.571L142.575 191.802C140.544 190.94 138.575 189.986 136.605 188.94C130.912 185.924 122.942 187.309 119.773 193.371C116.757 199.095 118.111 206.973 124.204 210.204C128.389 212.42 132.759 214.328 137.221 215.897C143.283 218.051 150.945 213.466 152.361 207.311C153.93 200.418 150.268 194.479 143.775 192.171H143.745Z" fill="#DDA873"/>
<path d="M120.791 162.383C129.592 145.027 151.779 126.04 166.704 148.227C175.505 161.306 196.831 148.997 187.968 135.795C162.611 98.068 117.683 114.162 99.558 149.951C92.4187 164.045 113.652 176.538 120.822 162.383H120.791Z" fill="#DDA873"/>
<path d="M167.594 180.385C160.67 187.986 151.561 190.94 141.652 192.694C135.098 193.863 131.405 201.834 133.067 207.834C134.974 214.727 141.652 217.62 148.207 216.42C161.993 213.927 175.41 208.296 185.011 197.772C195.658 186.078 178.302 168.599 167.594 180.354V180.385Z" fill="#DDA873"/>
<path d="M125.404 163.799C129.405 143.827 157.469 140.319 169.932 154.474C180.426 166.384 197.782 148.935 187.35 137.057C163.101 109.485 109.218 119.578 101.678 157.244C98.5704 172.723 122.296 179.339 125.404 163.799Z" fill="#DDA873"/>
<path d="M122.791 157.552C123.068 154.782 125.099 150.136 127.376 147.643C129.992 144.812 132.238 143.796 135.377 144.381C141.901 145.643 148.671 142.535 150.517 135.795C152.179 129.764 148.486 121.917 141.931 120.655C117.898 115.978 100.511 134.872 98.1725 157.552C97.4955 164.168 104.327 169.861 110.482 169.861C117.713 169.861 122.114 164.199 122.791 157.552Z" fill="#DDA873"/>
<path d="M153.808 142.658C159.716 145.427 165.717 147.981 171.379 151.213C177.041 154.444 185.104 152.721 188.212 146.781C191.32 140.842 189.781 133.334 183.781 129.949C177.78 126.564 172.118 124.163 166.209 121.394C160.301 118.624 152.669 119.578 149.377 125.825C146.484 131.272 147.561 139.765 153.808 142.658Z" fill="#DDA873"/>
<path d="M129.405 149.643C131.528 140.811 139.098 136.319 148.053 138.38C156.146 140.227 161.316 146.566 165.009 153.582C172.456 167.584 193.689 155.151 186.273 141.15C177.902 125.363 162.547 113.362 144.053 113.27C125.558 113.177 109.926 125.333 105.679 143.089C101.986 158.475 125.712 165.06 129.405 149.643Z" fill="#DDA873"/>
<path d="M160.823 185.832C150.637 212.574 111.156 186.571 123.065 161.553C129.835 147.336 108.632 134.811 101.801 149.12C94.1999 165.091 94.6615 183.155 102.939 197.31C107.155 197.71 110.54 199.988 113.033 203.403C113.987 204.727 114.664 206.204 115.064 207.804C116.541 209.312 117.772 211.004 118.633 212.851C118.756 213.097 118.818 213.312 118.91 213.558C119.926 214.174 120.911 214.789 121.988 215.374C132.543 220.852 146.637 223.221 158.269 220.144C172.363 216.42 179.625 205.25 184.518 192.387C190.18 177.585 166.362 171.154 160.792 185.832H160.823Z" fill="#DDA873"/>
<path d="M170.333 210.789C188.982 203.342 202.983 187.771 203.229 166.876C203.475 144.751 188.612 130.841 170.395 121.21C156.393 113.824 143.93 135.057 157.963 142.473C167.01 147.243 176.426 151.921 178.303 162.999C180.18 174.077 173.534 183.186 163.809 187.063C149.285 192.879 155.624 216.697 170.364 210.789H170.333Z" fill="#DDA873"/>
<path d="M122.05 169.43C118.327 163.737 112.388 156.536 116.511 149.828C120.296 143.673 129.251 140.411 135.898 139.304C151.5 136.719 144.884 112.993 129.343 115.578C115.68 117.855 100.756 127.056 93.9856 139.427C85.9847 154.013 92.4777 169.184 100.786 181.893C109.095 194.602 130.728 182.785 122.05 169.461V169.43Z" fill="#DDA873"/>
<path d="M146.27 137.919C150.393 135.857 154.855 132.595 158.579 136.227C162.087 139.642 164.364 145.366 165.995 149.859C171.411 164.63 195.198 158.229 189.721 143.304C185.751 132.503 180.151 120.471 170.18 113.916C158.61 106.315 145.039 111.024 133.838 116.655C119.682 123.764 132.145 145.028 146.27 137.919Z" fill="#DDA873"/>
</g>
<path d="M103.064 46.0624C97.8633 46.9855 94.5091 51.1091 93.9552 55.1403C93.4013 59.1715 95.063 63.2028 96.7863 67.0493C102.725 80.4047 110.049 94.0678 124.02 103.33C125.436 104.254 127.19 105.177 129.005 104.807C130.452 104.5 131.375 103.423 132.021 102.376C135.129 97.2066 134.206 91.2059 133.252 85.5437C131.252 73.8809 129.005 61.7257 120.204 52.063C117.404 48.9858 113.557 46.0624 108.665 45.57C103.772 45.0776 98.2326 48.278 99.2173 51.9707" fill="#F9F5E1"/>
<path d="M104.143 50.8015C106.389 63.726 111.097 76.3429 116.175 88.8058C117.098 91.083 118.421 93.6371 121.375 94.3757C120.267 84.99 118.206 75.7274 116.144 66.4341C115.252 62.4644 114.298 58.3408 111.19 55.0789C110.174 55.1712 109.928 56.1867 109.959 56.9561C110.236 65.2955 112.205 73.6041 115.836 81.4511C117.375 84.8054 119.314 88.1903 122.822 90.5598C123.314 90.8983 123.929 91.2369 124.576 91.1445C125.776 90.9907 128.576 104.777 128.391 103.854C126.33 93.4832 120.606 68.1573 116.575 58.1562C116.329 57.5407 115.805 56.7714 114.975 56.833C114.759 57.7869 114.513 58.7409 114.298 59.6948" fill="#F9F5E1"/>
<path d="M102.848 53.0782C103.186 51.8473 104.848 50.9856 106.479 50.9549C108.11 50.9241 109.679 51.6011 110.787 52.555C111.895 53.509 112.603 54.6476 113.218 55.8169C115.064 59.4173 116.08 63.2639 116.203 67.1105" fill="#F9F5E1"/>
<path d="M199.075 46.3702C194.459 44.3392 188.305 45.6009 184.304 48.2781C180.304 50.9554 177.904 54.7404 175.719 58.4639C168.118 71.3269 161.256 85.1438 163.194 99.1454C163.379 100.561 163.871 102.161 165.502 102.807C166.856 103.331 168.487 103.023 169.872 102.592C176.765 100.407 181.473 95.5758 185.812 90.9291C194.767 81.3588 203.999 71.2961 206.215 59.664C206.922 55.9405 206.738 51.817 203.599 48.9244C200.46 46.0317 193.536 45.4778 190.982 48.6782" fill="#F9F5E1"/>
<path d="M195.629 50.4009C185.72 61.0175 177.873 72.6803 170.426 84.4355C169.072 86.5588 167.749 89.1437 169.257 91.2055C176.827 83.7892 183.627 75.9114 190.428 68.0644C193.321 64.7102 196.337 61.1713 196.952 57.1709C196.152 56.7093 195.044 57.3247 194.398 57.9094C187.136 64.1563 181.166 71.234 176.796 78.8964C174.919 82.1583 173.319 85.6356 173.749 89.1745C173.811 89.6668 173.965 90.2515 174.519 90.5285C175.534 91.0516 176.796 90.1592 177.473 89.3899C185.228 80.7428 192.152 71.6648 198.183 62.2484C198.552 61.6637 198.86 60.8328 198.183 60.4328C197.167 61.0174 196.152 61.6021 195.106 62.1868" fill="#F9F5E1"/>
<path d="M192.613 51.3859C193.967 50.6474 195.936 50.8936 197.167 51.7244C198.398 52.5553 198.921 53.8785 198.89 55.1402C198.86 56.4019 198.337 57.6328 197.721 58.8021C195.875 62.4025 193.167 65.726 189.812 68.6186" fill="#F9F5E1"/>
<path d="M109.685 57.2579V57.1332C109.476 57.7567 109.236 58.3801 108.966 59.0035C109.086 58.723 109.206 58.4736 109.386 58.2554L108.217 59.8452C108.396 59.627 108.576 59.4087 108.816 59.2217L107.287 60.4374C107.587 60.2192 107.887 60.0322 108.247 59.8763L106.448 60.6556C106.838 60.4997 107.228 60.3751 107.647 60.3439L105.669 60.6244C106.088 60.5621 106.508 60.5933 106.928 60.6244L104.949 60.3439C105.549 60.4374 106.118 60.6244 106.658 60.8738L104.86 60.0945C105.879 60.5621 106.808 61.2167 107.707 61.9025C108.576 62.4635 109.506 62.7753 110.495 62.8376C111.484 63.0558 112.473 63.0246 113.492 62.7129C114.481 62.4635 115.321 61.996 116.04 61.3102C116.849 60.7491 117.509 60.0322 117.958 59.1282C118.887 57.3203 119.337 55.1383 118.708 53.1121L117.958 51.2419C117.299 50.0574 116.4 49.1534 115.261 48.4365C114.421 47.7819 113.522 47.1584 112.563 46.6909C110.495 45.6934 108.426 44.9141 106.088 45.0076C105.039 45.0388 103.96 45.1635 102.941 45.4752C102.162 45.6934 101.413 46.0986 100.693 46.4415C100.483 46.535 100.274 46.6285 100.094 46.7532C99.4043 47.1896 98.7448 47.7507 98.1454 48.3118C97.9955 48.4365 97.8456 48.5923 97.7257 48.7482C96.4069 50.3067 95.9573 51.2107 95.2679 53.1433C94.9681 54.172 94.9082 55.2006 95.148 56.2605C95.2079 57.2891 95.4777 58.2554 96.0472 59.1594C96.5268 60.0634 97.1562 60.8115 97.9655 61.3414C98.6849 62.0271 99.5242 62.4947 100.513 62.7441C102.432 63.2116 104.59 63.087 106.298 61.9648L107.827 60.7491C108.756 59.7828 109.386 58.6295 109.745 57.3203L109.685 57.2579Z" fill="#F9F5E1"/>
<path d="M191.776 60.8637C193.035 60.7086 194.326 60.3984 195.616 60.5845L193.588 60.3053C193.926 60.3674 194.233 60.4294 194.571 60.5845L192.728 59.809C192.943 59.902 193.127 60.0261 193.312 60.1502L191.745 58.9403C191.96 59.1265 192.175 59.3126 192.329 59.5297L191.13 57.9476C191.284 58.1647 191.407 58.3819 191.499 58.5991L190.731 56.7377C190.854 56.9858 190.915 57.265 190.946 57.5443L190.67 55.4967C190.7 55.7449 190.7 55.9931 190.67 56.2413C190.639 57.2961 190.854 58.3198 191.345 59.2195C191.653 60.1812 192.175 61.0189 192.943 61.7014C193.65 62.4459 194.448 63.0044 195.401 63.3146C196.322 63.811 197.306 64.0281 198.35 63.9971L200.378 63.7179C201.668 63.3456 202.805 62.6941 203.757 61.7324L204.955 60.1502C205.662 58.9403 206 57.6373 206 56.2413C206 56.0551 206 55.9 206 55.7139C206 55.3106 205.877 54.8452 205.846 54.4419C205.816 54.0386 205.754 53.6353 205.662 53.232C205.631 53.0769 205.57 52.8908 205.508 52.7357C205.232 51.9911 204.925 51.2155 204.556 50.502C204.341 50.0676 204.003 49.6954 203.696 49.3231C203.389 48.9508 203.143 48.5165 202.774 48.1752C202.098 47.4927 201.33 46.8412 200.47 46.4069C199.61 45.9726 198.565 45.4762 197.551 45.3211C196.538 45.166 195.432 44.9488 194.387 45.0109C193.496 45.0729 192.605 45.228 191.683 45.3521C190.639 45.3211 189.625 45.5382 188.734 46.0346C187.782 46.3448 186.952 46.8723 186.276 47.6478C185.539 48.3614 184.986 49.168 184.679 50.1297C184.187 51.0604 183.972 52.0531 184.003 53.1079L184.279 55.1555C184.648 56.4584 185.293 57.6063 186.246 58.568L187.812 59.7779C189.011 60.4915 190.301 60.8327 191.683 60.8327L191.776 60.8637Z" fill="#F9F5E1"/>
<path d="M112.575 173.338C106.851 168.876 104.851 161.368 110.02 155.582C112.636 152.628 116.729 151.613 120.175 149.951C124.638 147.828 128.576 144.658 132.238 141.366C137.962 136.196 143.963 128.687 152.241 127.856C155.503 127.518 157.503 128.964 159.688 131.241C162.98 134.719 166.088 138.011 170.52 140.073C174.212 141.796 178.12 142.781 181.936 144.074C184.521 144.935 187.26 146.074 188.522 148.628C191.968 155.675 185.968 163.983 181.967 169.307C179.351 172.784 175.966 176.046 174.551 180.231C173.658 182.878 173.658 185.617 174.243 188.355C174.643 190.202 176.397 192.848 176.213 194.695C175.966 197.095 173.074 198.418 171.043 199.126C166.827 200.603 162.088 201.218 157.687 201.803C152.948 202.419 147.717 202.757 143.132 201.095C140.886 200.264 139.008 198.757 136.916 197.618C134.146 196.11 131.284 195.218 128.146 194.91C125.315 194.633 122.514 195.033 119.714 195.464C118.421 195.649 117.129 195.956 115.806 196.079C115.221 196.141 113.375 195.833 112.913 196.172L116.298 199.064C116.267 198.233 116.237 197.403 116.267 196.572C116.267 194.91 116.267 193.218 116.36 191.556C116.483 188.448 116.698 185.34 117.006 182.262C117.437 178.108 113.159 174.569 109.313 174.569C104.82 174.569 102.05 178.108 101.62 182.262C101.004 188.386 100.266 195.033 101.158 201.157C102.235 208.388 108.328 211.989 115.283 211.497C120.822 211.096 125.838 208.85 130.854 211.897C136.423 215.282 142.055 217.189 148.579 217.559C154.702 217.928 160.888 216.851 166.888 215.774C172.889 214.697 179.167 213.251 184.152 209.219C188.522 205.711 191.537 200.449 191.599 194.756C191.63 191.802 190.645 189.186 189.722 186.478C189.506 185.801 189.445 184.14 189.168 185.032C189.476 184.047 190.707 182.878 191.322 182.078C198.307 173.154 205.693 163.214 204.647 151.182C204.154 145.458 202.185 139.95 198.03 135.857C193.876 131.764 188.645 129.98 183.352 128.349C178.459 126.841 175.289 125.425 171.781 121.609C167.658 117.147 163.073 113.639 156.887 112.747C144.886 111.024 134.669 118.009 126.33 125.795C121.806 130.041 117.56 134.288 111.836 136.903C105.497 139.796 100.204 142.627 96.142 148.474C88.418 159.644 91.0645 175.862 101.743 184.17C105.005 186.724 109.436 187.371 112.636 184.17C115.283 181.524 115.929 175.862 112.636 173.277L112.575 173.338Z" fill="#F9F5E1"/>
<path d="M106.483 194.325C109.191 199.003 113.314 202.142 118.453 203.742C124.392 205.588 129.07 199.772 127.931 194.264C126.793 188.756 124.023 184.694 120.854 180.508C118.361 177.185 114.207 175.492 110.329 177.739C106.729 179.862 105.498 184.663 107.56 188.263C110.114 192.725 113.376 196.756 117.253 200.111C121.869 204.111 130.855 201.834 130.393 194.664C129.962 188.017 126.608 182.262 123.746 176.385C120.884 170.507 117.93 164.845 114.853 159.183C111.406 152.782 99.7127 155.336 100.513 163.06C101.405 171.646 104.913 179.124 109.221 186.509C112.914 192.848 117.561 199.434 124.331 202.757C128.67 204.88 133.993 204.234 136.732 199.926C139.471 195.618 137.963 191.31 136.148 187.125C132.547 178.908 128.885 170.753 125.254 162.568C123.562 158.752 122.238 153.552 119.223 150.536C115.376 146.689 108.544 147.428 105.775 152.167C101.651 159.214 107.683 170.6 110.76 177C114.268 184.355 118.792 191.402 124.146 197.556C126.762 200.511 130.024 203.742 133.84 205.065C138.856 206.788 143.933 204.727 146.333 200.049C148.949 194.941 146.426 190.048 144.425 185.278C142.425 180.508 140.517 176.077 138.579 171.492C134.486 161.829 130.393 152.198 126.3 142.535C123.223 135.273 111.806 139.273 111.96 146.412C112.176 157.367 116.607 168.569 121.438 178.262C126.27 187.955 132.393 197.495 141.256 203.465C146.087 206.727 152.703 208.789 157.35 203.926C161.597 199.495 160.027 193.002 158.427 187.832C154.98 176.6 150.303 165.614 146.21 154.598C144.118 148.936 141.994 143.273 139.902 137.611C137.809 131.949 134.517 125.518 127.193 127.549C114.976 130.903 121.9 150.997 124.423 159.029C127.439 168.661 131.655 178.139 137.563 186.355C142.794 193.587 153.38 208.081 163.781 201.465C170.059 197.464 168.828 189.925 166.859 183.955C164.705 177.4 161.812 171.03 159.227 164.63C156.642 158.229 154.211 152.29 151.688 146.135C149.164 139.981 147.533 131.795 140.333 129.703C136.64 128.626 131.562 130.995 130.855 135.088C129.47 143.12 131.686 150.997 134.27 158.567C136.855 166.138 139.81 172.815 143.564 179.431C147.318 186.047 151.534 192.51 156.888 197.741C159.627 200.418 162.827 203.034 166.797 203.28C171.813 203.619 175.875 200.541 177.321 195.741C179.445 188.663 175.598 179.924 173.321 173.277C170.582 165.307 167.843 157.337 165.074 149.397C163.843 145.889 162.612 142.381 161.35 138.904C159.996 135.119 158.95 130.534 156.827 127.087C154.396 123.179 149.072 121.025 144.825 123.487C140.579 125.948 139.686 130.687 139.563 135.211C139.317 142.904 141.594 151.12 143.995 158.352C146.395 165.584 149.257 172.292 153.196 178.508C156.704 184.016 162.243 191.71 168.92 193.464C173.106 194.572 177.814 192.479 180.122 188.94C182.43 185.401 182.491 181.309 181.907 177.247C180.83 169.676 177.814 162.291 175.198 155.152C172.367 147.459 169.413 139.796 166.151 132.288C163.32 125.671 157.319 115.855 148.949 122.194C142.487 127.087 143.841 137.211 145.718 143.981C147.872 151.613 151.657 158.567 156.581 164.722C161.504 170.877 169.628 178.57 178.245 176.046C187.815 173.246 186.584 159.337 184.984 151.859C183.384 144.381 180.46 131.826 170.613 132.164C165.166 132.349 162.458 136.903 163.197 141.889C163.935 146.874 165.843 151.736 168.736 155.859C171.628 159.983 175.629 164.876 180.799 165.522C187.261 166.291 191.477 160.598 191.569 154.629C191.631 149.213 189.631 143.612 186.584 139.242C181.691 132.195 170.459 136.38 172.521 145.181C174.029 151.582 177.445 157.367 182.43 161.676C187.415 165.984 195.416 163.183 195.57 156.229C195.693 150.074 193.385 144.535 189.169 140.073C182.337 132.872 171.475 143.766 178.275 150.967C179.783 152.567 180.214 154.075 180.153 156.229L193.292 150.782C190.154 148.074 188.307 145.12 187.353 141.089L173.29 147.028C174.213 148.351 175.044 149.674 175.567 151.244C175.783 151.89 175.844 152.598 176.091 153.244C176.891 155.275 174.46 154.936 177.198 152.382L180.583 150.413L179.814 150.597H183.907C185.138 151.305 185.168 151.182 183.968 150.228C183.384 149.674 182.861 149.089 182.337 148.474C181.63 147.582 181.045 146.597 180.491 145.612C179.137 143.181 178.522 140.565 178.091 137.827L170.675 147.551H170.274C169.136 146.905 167.997 146.258 166.889 145.581C168.213 146.72 169.351 152.228 169.905 154.598C170.275 156.167 170.582 157.706 170.705 159.306C170.767 160.445 170.644 161.552 170.675 162.691C170.675 164.045 169.936 163.922 170.828 163.183L174.213 161.214C175.967 160.845 174.49 160.814 173.444 160.045C172.152 159.091 171.013 157.798 169.936 156.629C167.72 154.229 165.905 151.613 164.305 148.782C162.827 146.135 161.658 143.397 160.796 140.473C160.366 139.027 159.904 137.519 159.719 136.011C159.627 135.303 159.75 134.534 159.627 133.826C159.442 132.841 160.427 132.257 159.135 133.642L155.75 135.611L156.458 135.365H152.365L153.073 135.549L149.688 133.58C148.98 132.965 150.241 134.38 150.488 134.811C151.011 135.734 151.472 136.688 151.934 137.673C152.796 139.519 153.534 141.427 154.303 143.304C156.15 147.889 157.965 152.505 159.689 157.121C161.412 161.737 162.889 165.953 164.366 170.415C165.074 172.538 165.782 174.692 166.336 176.877C166.582 177.893 166.92 178.97 167.013 180.016V180.539C166.951 182.355 167.074 182.232 167.413 180.201L170.798 178.231C173.629 179.308 174.429 179.401 173.198 178.447C172.736 178.047 172.275 177.647 171.844 177.216C171.259 176.662 170.705 176.077 170.151 175.492C168.797 174.015 167.659 172.446 166.582 170.753C164.305 167.184 162.397 163.368 160.827 159.46C159.104 155.213 157.75 150.782 156.673 146.32C155.688 142.227 154.088 136.934 155.534 132.811L153.565 136.196L154.303 135.58L146.826 137.55L147.657 137.704L144.272 135.734C143.225 134.626 144.825 137.888 144.918 138.104C145.349 139.273 145.749 140.442 146.179 141.581C147.103 144.135 148.026 146.72 148.918 149.274C150.734 154.413 152.519 159.552 154.303 164.691C156.088 169.83 157.842 174.846 159.535 179.954C160.643 183.216 163.658 189.217 162.274 192.571L164.243 189.186L163.566 189.925L166.951 187.955V187.894C168.243 188.232 169.536 188.602 170.828 188.94C167.074 187.278 164.305 182.939 162.027 179.647C159.104 175.4 156.458 170.938 154.15 166.322C152.026 162.076 150.272 157.706 148.826 153.213C147.503 149.12 145.102 143.55 145.841 139.181L136.363 144.566L137.225 144.812L133.84 142.843C134.517 143.427 135.286 146.166 135.809 147.428C136.794 149.797 137.748 152.167 138.702 154.536C140.548 159.029 142.364 163.553 144.21 168.045C146.056 172.538 147.872 176.97 149.657 181.462C150.58 183.801 153.903 190.109 153.196 192.079L155.165 188.694H155.196C156.488 188.386 157.781 188.017 159.073 187.678C159.996 188.171 160.15 188.263 159.566 188.017L158.642 187.186C157.535 186.263 156.55 185.186 155.565 184.17C154.057 182.57 152.58 180.908 151.257 179.154C148.18 175.062 145.626 170.538 143.441 165.922C141.44 161.645 139.871 157.183 138.579 152.628C137.378 148.505 134.609 141.889 136.055 137.704L134.086 141.089L134.732 140.473L129.285 142.72H129.993C128.701 142.35 127.408 142.012 126.116 141.642L126.731 142.073L123.962 139.304C125.192 140.965 125.685 143.335 126.423 145.304C127.377 147.889 128.362 150.505 129.316 153.09C131.255 158.291 133.163 163.46 135.101 168.661C137.04 173.861 138.948 179.031 140.887 184.232C141.687 186.386 142.518 188.54 143.225 190.725C143.656 192.017 143.995 193.31 144.364 194.602C145.102 197.249 143.964 195.279 145.872 193.679L149.257 191.71L148.303 191.925H152.396C148.795 191.31 145.595 187.371 143.441 184.694C140.579 181.124 138.179 177.062 135.994 173.031C131.809 165.214 127.562 155.552 127.377 146.535L113.037 150.413C116.361 158.229 119.653 166.045 122.977 173.861C124.546 177.554 126.085 181.216 127.654 184.909C128.516 186.971 129.408 189.032 130.27 191.125C130.639 191.987 130.916 193.094 131.439 193.895C133.224 196.664 128.916 194.172 134.117 191.525L137.994 190.479C138.948 190.479 138.702 190.817 138.302 190.14C137.902 189.463 136.948 188.879 136.394 188.325C135.317 187.217 134.301 186.017 133.347 184.786C131.039 181.801 129.008 178.57 127.162 175.308C125.469 172.323 123.869 169.246 122.546 166.076C121.9 164.537 121.346 162.968 120.884 161.399C120.638 160.568 120.392 159.706 120.207 158.844C120.115 158.414 120.023 157.983 119.93 157.552C119.776 156.444 119.746 156.69 119.838 158.291L116.299 162.876L116.792 162.506L110.852 163.276L111.714 163.583L107.129 160.045C110.699 165.614 112.883 172.631 115.591 178.693C117.007 181.862 118.422 185.063 119.838 188.232C120.453 189.586 121.038 190.971 121.654 192.325C122.054 193.248 122.454 194.141 122.854 195.064C123.254 196.326 123.469 195.402 123.438 192.356L126.208 189.586L125.593 189.894L129.47 188.848L128.608 188.786L132.486 189.833C127.777 187.771 124.977 183.216 122.484 178.939C119.684 174.169 116.453 168.876 115.868 163.245L101.528 167.122C104.144 171.954 106.698 176.846 109.16 181.77C110.329 184.109 111.499 186.478 112.637 188.848C113.53 190.694 114.853 192.725 115.007 194.849L128.147 189.402C125.162 186.817 122.823 184.078 120.854 180.662L107.56 188.417C109.929 191.556 112.268 194.572 113.068 198.48L122.546 189.002C121.161 188.571 120.515 187.955 119.776 186.632C114.822 178.077 101.528 185.801 106.483 194.387V194.325Z" fill="#F9F5E1"/>
<path d="M146.5 187C158.374 187 168 177.374 168 165.5C168 153.626 158.374 144 146.5 144C134.626 144 125 153.626 125 165.5C125 177.374 134.626 187 146.5 187Z" fill="#626F34"/>
</g>
<defs>
<clipPath id="clip0_125_3088">
<rect width="294" height="283.76" fill="white"/>
</clipPath>
</defs>
</svg>
