<svg width="5136" height="1417" viewBox="0 0 5136 1417" fill="none" xmlns="http://www.w3.org/2000/svg">
<g clip-path="url(#clip0_118_2528)">
<path d="M163.064 1289.6C160.45 1308.98 153.046 1325.75 140.632 1340.12C128.436 1354.5 114.279 1364.52 98.5984 1369.74C82.9176 1374.97 67.019 1374.97 51.3382 1369.74C35.6574 1364.52 23.2434 1351.88 14.5318 1331.63C10.176 1322.05 7.12701 1304.62 5.38469 1279.8C3.64238 1254.75 2.33564 1228.83 1.46448 1201.61C0.593326 1174.39 0.37548 1149.34 0.811059 1126.04C1.24664 1102.73 1.46448 1088.58 1.46448 1083.35V808.717C1.46448 806.103 1.24664 793.036 0.811059 769.297C0.37548 745.558 0.37548 719.641 0.811059 691.11C1.24664 662.58 2.55338 635.138 4.73127 608.35C6.90916 581.562 11.0471 563.486 17.1452 553.903C24.9857 540.836 34.5684 531.253 46.1112 525.59C57.4363 519.928 69.1968 517.532 80.9575 518.403C92.7181 519.274 104.696 522.759 116.457 528.857C128.218 534.955 138.236 544.102 146.076 556.516C149.561 560.872 152.828 566.099 155.877 572.197C158.926 578.295 160.451 583.958 160.451 589.185C161.322 631.218 161.322 672.598 160.451 713.325C159.579 754.052 159.144 795.432 159.144 837.465C190.723 819.171 219.907 798.263 246.477 774.959C273.265 751.656 299.182 725.303 324.664 695.466C330.762 687.626 339.473 675.647 351.016 659.967C362.341 644.286 374.755 627.951 387.822 611.399C400.89 594.847 414.175 579.166 427.242 564.792C440.31 550.418 451.852 540.836 461.435 536.48C480.601 526.897 499.113 523.412 516.536 526.026C533.959 528.639 548.551 535.391 559.876 546.498C571.201 557.388 578.388 571.544 581.655 588.532C584.704 605.519 581.437 623.378 571.854 641.672C568.37 649.513 564.667 656.046 560.747 661.491C556.827 666.718 552.906 671.509 548.986 675.865C545.066 680.221 540.928 685.012 536.572 690.239C532.217 695.466 527.861 701.564 523.505 708.534C512.18 726.828 498.459 745.558 482.778 764.288C467.098 783.236 450.328 801.53 432.905 819.389C415.264 837.247 397.405 854.671 379.111 871.223C360.817 887.775 343.176 903.673 326.624 918.483C348.403 942.222 370.399 965.743 392.396 989.482C414.175 1013.22 436.607 1036.74 459.475 1060.48C464.702 1065.71 476.027 1076.82 493.668 1094.02C511.091 1111.01 529.821 1129.96 549.422 1150.43C569.241 1171.12 587.099 1191.37 603.216 1211.63C619.332 1231.88 628.915 1247.56 631.528 1258.89C635.884 1276.53 635.013 1292.86 628.915 1308.11C622.817 1323.35 613.452 1335.99 600.602 1345.57C587.971 1355.15 573.379 1360.38 557.262 1361.25C541.146 1362.12 525.029 1356.89 509.349 1345.57C502.379 1340.34 495.192 1334.03 487.57 1326.62C480.165 1319.22 473.196 1311.59 466.444 1303.53C459.911 1295.69 453.595 1288.07 447.279 1280.45C441.181 1273.04 435.954 1267.16 431.598 1262.81C390.436 1218.16 349.709 1174.39 309.418 1131.48C269.127 1088.58 228.401 1045.24 187.239 1001.46C182.883 1003.2 178.091 1005.16 172.864 1007.34C167.638 1009.52 162.846 1011.48 158.49 1013.22C158.49 1057.87 158.926 1102.3 159.797 1146.73C160.668 1190.94 161.975 1235.37 163.717 1280.23V1289.38L163.064 1289.6Z" fill="#E8C4BA"/>
<path d="M751.966 592.452C754.58 583.087 758.718 573.94 764.598 565.01C770.478 556.081 777.448 548.241 785.506 541.489C793.564 534.738 802.493 529.729 812.294 526.897C822.094 523.848 832.113 524.066 842.131 527.551C873.492 514.919 905.507 504.247 938.394 495.753C971.062 487.26 1003.73 482.468 1036.4 481.161C1069.07 479.855 1101.3 482.904 1133.31 490.091C1165.11 497.278 1195.82 510.781 1225.66 530.164C1249.4 545.409 1270.52 564.575 1288.6 587.443C1306.89 610.311 1321.92 634.485 1333.9 659.967C1354.37 705.92 1363.52 751.438 1361.99 796.956C1360.25 842.475 1349.58 884.726 1330.2 923.71C1310.6 962.694 1283.37 997.105 1248.09 1026.94C1212.81 1056.78 1171.43 1078.34 1123.95 1091.84C1088.23 1102.08 1052.08 1106.87 1015.06 1106.44C978.031 1106 941.878 1103.6 906.161 1099.47V1222.95C906.161 1232.32 906.596 1242.12 907.468 1252.35C908.339 1262.59 908.557 1272.83 908.121 1282.85C907.685 1293.08 906.379 1303.1 904.201 1312.68C902.023 1322.48 898.103 1331.63 892.005 1340.12C881.769 1357.11 868.701 1367.57 852.585 1371.27C836.468 1375.19 821.005 1374.32 806.196 1368.65C791.386 1363.21 778.536 1353.84 768.083 1340.56C757.411 1327.27 752.184 1311.38 752.184 1292.86V1063.53C736.068 1055.04 724.089 1044.37 716.467 1031.73C708.844 1019.1 705.359 1006.03 706.231 992.967C707.102 979.9 711.24 967.268 718.862 955.29C726.485 943.311 737.157 933.728 750.66 926.106V600.075L751.966 592.452ZM1122.64 648.424C1086.93 634.05 1050.77 629.694 1013.75 635.792C976.724 641.672 941.007 652.78 906.161 668.896V946.578C946.016 953.329 986.743 955.072 1028.34 951.587C1069.94 948.102 1108.05 935.471 1142.9 913.474C1167.51 897.357 1184.5 876.885 1193.86 852.275C1203.23 827.665 1206.49 802.619 1204.1 777.138C1201.48 751.656 1192.99 727.264 1178.61 703.96C1164.24 680.657 1145.51 662.145 1122.64 648.642V648.424Z" fill="#E8C4BA"/>
<path d="M3563.84 587.007C3561.66 646.246 3559.27 705.267 3556.22 763.852C3553.17 822.656 3548.16 881.676 3541.19 940.697C3533.13 999.065 3522.03 1056.56 3508.09 1113.4C3493.93 1170.47 3469.32 1226.66 3434.26 1281.97C3415.09 1310.72 3389.61 1332.28 3357.38 1346.44C3325.14 1360.81 3291.17 1368 3255.02 1368C3218.86 1368 3186.2 1361.03 3153.96 1347.31C3121.95 1333.37 3095.81 1312.46 3075.56 1284.81C3068.59 1274.57 3061.84 1263.46 3055.3 1251.48C3048.77 1239.5 3043.11 1228.4 3038.1 1218.16C3032.87 1229.27 3026.99 1240.59 3019.8 1252.14C3012.84 1263.68 3005.21 1275.66 2997.15 1287.64C2977.99 1315.3 2952.73 1336.2 2920.93 1349.92C2889.13 1363.86 2855.59 1370.83 2820.53 1370.83C2782.2 1370.83 2746.91 1363.65 2714.68 1349.27C2682.45 1334.9 2656.75 1313.55 2637.58 1284.81C2613.41 1247.78 2593.81 1208.36 2578.78 1166.11C2563.54 1124.08 2551.78 1080.95 2543.28 1036.53C2534.57 992.096 2529.13 947.231 2526.51 901.931C2524.12 856.631 2522.81 811.766 2522.81 767.337C2522.81 736.846 2523.03 706.792 2523.46 677.172C2524.12 647.553 2524.77 618.587 2525.86 589.838C2530.87 568.495 2541.54 552.379 2558.09 541.271C2574.43 530.164 2592.72 524.719 2612.76 524.719C2631.7 524.719 2649.56 529.946 2666.55 540.618C2683.54 551.29 2695.08 567.188 2701.18 588.532V631.436C2700.09 655.393 2699.22 679.568 2698.78 703.525C2698.35 727.699 2698.13 752.092 2698.13 777.137C2698.13 852.057 2703.14 926.106 2713.16 999.065C2723.39 1072.02 2745.17 1139.54 2778.49 1201.61L2805.94 1226.66L2824.23 1230.79L2839.48 1225.13L2854.5 1207.05C2876.93 1169.16 2894.36 1128.65 2906.99 1085.75C2919.62 1042.84 2929.64 998.412 2936.61 952.676C2943.8 906.722 2948.59 860.333 2950.98 813.073C2953.6 766.03 2955.99 719.205 2957.95 673.034C2957.95 663.887 2958.17 654.086 2958.61 643.85C2959.26 633.832 2959.91 624.031 2961 614.884C2966.01 593.541 2976.9 577.86 2993.45 567.624C3010 557.388 3028.52 552.379 3048.55 552.379C3068.59 552.379 3085.79 557.388 3103 567.624C3119.99 577.86 3132.18 593.541 3139.15 614.884C3138.28 641.672 3137.41 668.678 3136.97 695.902C3136.54 723.126 3136.1 750.785 3136.1 778.444C3136.1 853.364 3141.55 927.195 3152 999.719C3162.67 1072.24 3186.63 1140.63 3223.87 1204.44L3229.97 1216.85L3243.47 1225.13L3254.15 1229.27C3254.15 1229.27 3256.98 1228.83 3260.03 1227.96C3263.07 1227.09 3265.69 1226.66 3267.65 1226.66C3293.78 1200.74 3312.73 1168.72 3324.27 1130.83C3335.82 1092.93 3345.18 1054.6 3352.37 1015.62C3366.31 944.4 3375.45 873.401 3379.59 802.837C3383.51 732.055 3386.56 660.62 3388.52 588.532C3393.53 567.188 3403.98 551.072 3420.1 539.965C3436 528.857 3453.86 523.195 3473.89 523.195C3493.93 523.195 3512.44 528.639 3529.21 539.093C3546.42 549.765 3557.74 565.882 3563.84 587.007Z" fill="#E8C4BA"/>
<path d="M3828.89 1289.6C3826.28 1308.98 3818.87 1325.75 3806.46 1340.12C3794.26 1354.5 3780.11 1364.52 3764.42 1369.74C3748.74 1374.97 3732.84 1374.97 3717.16 1369.74C3701.48 1364.52 3689.07 1351.88 3680.36 1331.63C3676 1322.05 3672.95 1304.62 3671.21 1279.8C3669.47 1254.75 3668.16 1228.83 3667.29 1201.61C3666.42 1174.39 3666.2 1149.34 3666.64 1126.04C3667.07 1102.73 3667.29 1088.58 3667.29 1083.35V808.717C3667.29 806.103 3667.07 793.036 3666.64 769.297C3666.2 745.558 3666.2 719.641 3666.64 691.11C3667.07 662.58 3668.38 635.138 3670.56 608.35C3672.74 581.562 3676.87 563.486 3682.97 553.903C3690.81 540.836 3700.39 531.253 3711.94 525.59C3723.26 519.928 3735.02 517.532 3746.78 518.403C3758.54 519.274 3770.52 522.759 3782.28 528.857C3794.04 534.955 3804.06 544.102 3811.9 556.516C3815.39 560.872 3818.65 566.099 3821.7 572.197C3824.75 578.295 3826.28 583.958 3826.28 589.185C3827.15 631.218 3827.15 672.598 3826.28 713.325C3825.41 754.052 3824.97 795.432 3824.97 837.465C3856.55 819.171 3885.52 798.263 3912.3 774.959C3939.09 751.656 3965.01 725.303 3990.49 695.466C3996.59 687.626 4005.3 675.647 4016.84 659.967C4028.17 644.286 4040.58 627.951 4053.65 611.399C4066.72 594.847 4080 579.166 4093.07 564.792C4106.14 550.418 4117.68 540.836 4127.26 536.48C4146.43 526.897 4164.94 523.412 4182.58 526.026C4200 528.639 4214.59 535.391 4225.92 546.498C4237.24 557.388 4244.43 571.544 4247.7 588.532C4250.75 605.519 4247.7 623.378 4237.9 641.672C4234.41 649.513 4230.71 656.046 4226.79 661.491C4222.87 666.718 4218.95 671.509 4215.03 675.865C4211.11 680.221 4206.97 685.012 4202.62 690.239C4198.26 695.466 4193.9 701.564 4189.55 708.534C4178.22 726.828 4164.5 745.558 4148.82 764.288C4133.14 783.236 4116.37 801.53 4098.95 819.389C4081.31 837.247 4063.45 854.671 4045.15 871.223C4026.86 887.775 4009.22 903.673 3992.67 918.483C4014.66 942.222 4036.44 965.743 4058.44 989.482C4080.44 1013.22 4102.65 1036.74 4125.52 1060.48C4130.75 1065.71 4142.07 1076.82 4159.71 1094.02C4177.13 1111.01 4195.86 1129.96 4215.47 1150.43C4235.07 1171.12 4253.14 1191.37 4269.26 1211.63C4285.38 1231.88 4294.96 1247.56 4297.57 1258.89C4301.93 1276.53 4301.06 1292.86 4294.96 1308.11C4288.86 1323.35 4279.5 1335.99 4266.65 1345.57C4254.01 1355.15 4239.42 1360.38 4223.31 1361.25C4207.19 1362.12 4191.07 1356.89 4175.39 1345.57C4168.42 1340.34 4161.24 1334.03 4153.61 1326.62C4146.21 1319.22 4139.24 1311.59 4132.49 1303.53C4125.95 1295.69 4119.64 1288.07 4113.54 1280.45C4107.44 1273.04 4102.22 1267.16 4097.86 1262.81C4056.7 1218.16 4015.97 1174.39 3975.68 1131.48C3935.39 1088.58 3894.66 1045.24 3853.5 1001.46C3849.14 1003.2 3844.35 1005.16 3839.13 1007.34C3833.9 1009.52 3829.11 1011.48 3824.75 1013.22C3824.75 1057.87 3825.19 1102.3 3826.06 1146.73C3826.93 1190.94 3828.24 1235.37 3829.98 1280.23V1289.38L3828.89 1289.6Z" fill="#E8C4BA"/>
<path d="M5107.75 1293.3C5105.14 1312.25 5098.82 1328.15 5088.58 1341.43C5078.35 1354.72 5066.59 1363.86 5053.3 1369.09C5040.02 1374.32 5025.86 1374.97 5010.83 1371.05C4995.8 1367.13 4981.87 1357.11 4969.02 1340.78C4957.91 1327.06 4951.59 1311.81 4950.29 1295.26C4948.98 1278.71 4946.58 1262.16 4943.1 1245.82C4934.61 1198.78 4922.19 1150.21 4905.86 1100.56C4852.72 1101.43 4800.01 1101.86 4747.74 1101.86C4695.47 1101.86 4643.2 1102.3 4590.94 1103.17C4583.31 1125.38 4576.56 1148.03 4570.9 1171.34C4565.24 1194.42 4560.01 1217.07 4554.78 1239.5C4550.43 1256.71 4546.72 1274.35 4543.24 1292.86C4539.75 1311.38 4532.13 1327.27 4520.15 1340.99C4505.56 1358.2 4489.88 1367.78 4473.33 1369.96C4456.56 1372.14 4441.53 1369.31 4428.46 1361.68C4415.18 1354.06 4404.51 1342.08 4396.23 1326.4C4387.96 1310.72 4385.34 1292.43 4387.96 1271.74C4390.57 1245.17 4395.58 1219.03 4403.42 1193.33C4411.04 1167.63 4418.45 1141.94 4425.2 1116.24C4463.75 969.01 4513.4 826.358 4574.17 688.279C4579.39 676.301 4584.62 664.758 4590.28 653.651C4595.94 642.543 4601.17 631.436 4606.4 620.329C4612.28 608.35 4618.38 595.501 4624.47 581.78C4630.36 568.059 4637.54 555.428 4645.6 543.885C4653.66 532.342 4663.46 522.541 4674.57 514.265C4685.67 506.207 4699.39 502.069 4715.73 502.069C4737.07 502.069 4755.15 509.038 4769.74 522.541C4827.89 580.909 4876.02 646.464 4913.7 719.859C4951.38 793.036 4985.13 867.738 5015.19 943.964C5033.26 943.093 5050.69 943.093 5067.89 943.964C5085.1 944.836 5100.34 952.458 5114.06 967.05C5126.04 979.028 5133.01 991.878 5135.19 1005.6C5137.37 1019.32 5136.06 1032.6 5131.27 1045.45C5126.48 1058.3 5118.86 1069.41 5108.18 1078.78C5097.51 1088.14 5084.45 1094.67 5068.98 1098.16C5077.48 1128.21 5085.1 1158.71 5091.41 1190.07C5097.73 1221.43 5103.18 1252.79 5107.53 1284.59V1293.52L5107.75 1293.3ZM4845.75 943.964C4829.41 905.416 4812.21 867.085 4793.7 828.971C4775.18 790.858 4754.49 754.705 4731.41 720.512C4714.2 758.19 4698.09 795.649 4683.28 832.891C4668.25 870.134 4654.31 908.029 4641.46 946.578C4681.75 945.707 4717.04 945.271 4747.53 945.271C4778.02 945.271 4810.68 944.836 4845.75 943.964Z" fill="#E8C4BA"/>
<path d="M1949.81 371.831C1661.24 371.831 1427.11 605.955 1427.11 894.526C1427.11 1183.1 1661.24 1417.22 1949.81 1417.22C2238.38 1417.22 2472.5 1183.1 2472.5 894.526C2472.5 605.955 2238.38 371.831 1949.81 371.831ZM1949.81 1096C1840.49 1096 1751.58 1007.09 1751.58 897.775C1751.58 788.455 1840.49 699.55 1949.81 699.55C2059.13 699.55 2148.03 788.455 2148.03 897.775C2148.03 1007.09 2059.13 1096 1949.81 1096Z" fill="#DDA873"/>
<path d="M1639.89 49.9379C1603.09 56.4716 1579.35 85.6554 1575.43 114.186C1571.51 142.716 1583.27 171.247 1595.46 198.47C1637.5 292.991 1689.33 389.69 1788.21 455.245C1798.22 461.778 1810.64 468.312 1823.49 465.699C1833.72 463.521 1840.26 455.898 1844.83 448.493C1866.83 411.904 1860.29 369.435 1853.54 329.362C1839.39 246.82 1823.49 160.793 1761.2 92.4069C1741.38 70.6279 1714.16 49.938 1679.53 46.4534C1644.9 42.9688 1605.7 65.6187 1612.67 91.7535" fill="#F9F5E1"/>
<path d="M1647.51 83.4775C1663.41 174.949 1696.73 264.243 1732.67 352.448C1739.2 368.564 1748.57 386.641 1769.48 391.868C1761.64 325.442 1747.04 259.887 1732.45 194.115C1726.14 166.02 1719.39 136.836 1697.39 113.75C1690.2 114.404 1688.46 121.591 1688.68 127.035C1690.64 186.056 1704.58 244.86 1730.27 300.396C1741.16 324.135 1754.88 348.092 1779.71 364.862C1783.2 367.257 1787.55 369.653 1792.13 369C1800.62 367.911 1820.44 465.481 1819.13 458.947C1804.54 385.552 1764.03 206.311 1735.5 135.529C1733.76 131.173 1730.06 125.729 1724.18 126.164C1722.65 132.916 1720.91 139.667 1719.38 146.419" fill="#F9F5E1"/>
<path d="M1638.37 99.5938C1640.76 90.8822 1652.52 84.7842 1664.07 84.5665C1675.61 84.3487 1686.72 89.14 1694.56 95.8914C1702.4 102.643 1707.41 110.701 1711.76 118.977C1724.83 144.458 1732.02 171.682 1732.89 198.906" fill="#F9F5E1"/>
<path d="M2319.39 52.1157C2286.73 37.7416 2243.17 46.671 2214.86 65.6187C2186.54 84.5664 2169.56 111.354 2154.09 137.707C2100.3 228.743 2051.73 326.531 2065.45 425.625C2066.76 435.643 2070.24 446.968 2081.79 451.542C2091.37 455.244 2102.91 453.067 2112.71 450.018C2161.5 434.554 2194.82 400.361 2225.53 367.475C2288.9 299.743 2354.24 228.525 2369.92 146.201C2374.93 119.848 2373.62 90.6645 2351.41 70.1923C2329.19 49.72 2280.19 45.7998 2262.12 68.4499" fill="#F9F5E1"/>
<path d="M2295 80.6462C2224.87 155.784 2169.34 238.326 2116.63 321.522C2107.05 336.549 2097.68 354.843 2108.36 369.435C2161.93 316.948 2210.06 261.194 2258.2 205.657C2278.67 181.918 2300.01 156.873 2304.37 128.56C2298.7 125.293 2290.86 129.649 2286.29 133.787C2234.89 177.998 2192.64 228.09 2161.71 282.319C2148.43 305.405 2137.1 330.015 2140.15 355.061C2140.59 358.546 2141.68 362.684 2145.6 364.644C2152.79 368.346 2161.71 362.03 2166.51 356.586C2221.39 295.387 2270.39 231.139 2313.08 164.495C2315.69 160.357 2317.87 154.477 2313.08 151.646C2305.89 155.784 2298.7 159.922 2291.3 164.06" fill="#F9F5E1"/>
<path d="M2273.66 87.6156C2283.24 82.3886 2297.18 84.1309 2305.89 90.0113C2314.6 95.8916 2318.31 105.256 2318.09 114.186C2317.87 123.115 2314.17 131.827 2309.81 140.103C2296.74 165.584 2277.58 189.106 2253.84 209.578" fill="#F9F5E1"/>
<path d="M2660.23 1208.8C2705.1 1273.7 2784.81 1297.66 2860.17 1276.53C2926.37 1257.8 2984.09 1208.58 3014.36 1146.94C3026.77 1121.46 3022.2 1086.83 2994.76 1072.46C2970.37 1059.61 2933.56 1064.62 2920.27 1092.06C2915.27 1102.52 2908.95 1111.66 2902.85 1121.46C2909.39 1113.84 2899.37 1127.13 2902.85 1121.46C2901.11 1123.42 2899.37 1125.6 2897.62 1127.56C2893.49 1132.13 2889.35 1136.49 2884.99 1140.63C2883.03 1142.37 2881.07 1144.33 2878.89 1146.07C2877.81 1146.94 2876.93 1147.82 2875.85 1148.69C2872.8 1151.3 2873.89 1150.43 2878.89 1146.51C2878.89 1148.69 2867.57 1154.35 2865.61 1155.66C2860.38 1158.92 2854.94 1161.97 2849.28 1164.8C2848.19 1165.24 2839.47 1169.38 2845.79 1166.76C2852.76 1163.71 2840.13 1168.72 2839.91 1168.94C2834.25 1170.9 2828.59 1172.43 2822.92 1173.73C2821.4 1174.17 2808.98 1176.35 2817.04 1175.04C2824.23 1173.95 2814.65 1175.04 2813.34 1175.04C2806.59 1175.48 2800.06 1175.04 2793.52 1175.04C2784.16 1174.6 2794.61 1173.73 2795.92 1175.48C2795.26 1174.6 2789.6 1174.17 2788.29 1173.73C2785.03 1172.86 2781.98 1171.99 2778.93 1170.9C2777.41 1170.47 2769.56 1166.76 2776.32 1170.03C2783.07 1173.3 2775.23 1169.38 2773.92 1168.72C2771.09 1167.2 2768.26 1165.46 2765.43 1163.93C2758.68 1160.23 2766.52 1163.06 2766.95 1165.67C2766.73 1164.37 2762.16 1161.54 2761.07 1160.67C2758.68 1158.49 2756.72 1155.87 2754.32 1153.7C2749.09 1148.9 2761.51 1164.15 2754.32 1153.91C2738.2 1130.61 2705.75 1117.54 2679.84 1134.31C2656.53 1149.34 2643.03 1183.75 2660.23 1208.8Z" fill="#E8C4BA"/>
<path d="M3097.34 1190.5C3142.2 1255.4 3221.91 1279.36 3297.27 1258.23C3363.48 1239.5 3421.19 1190.28 3451.46 1128.65C3463.88 1103.17 3459.3 1068.54 3431.86 1054.17C3407.47 1041.32 3370.66 1046.33 3357.38 1073.77C3352.37 1084.22 3346.05 1093.37 3339.95 1103.17C3346.49 1095.55 3336.47 1108.83 3339.95 1103.17C3338.21 1105.13 3336.47 1107.31 3334.73 1109.27C3330.59 1113.84 3326.45 1118.2 3322.1 1122.33C3320.14 1124.08 3318.18 1126.04 3316 1127.78C3314.91 1128.65 3314.04 1129.52 3312.95 1130.39C3309.9 1133.01 3310.99 1132.13 3316 1128.21C3316 1130.39 3304.67 1136.05 3302.71 1137.36C3297.49 1140.63 3292.04 1143.68 3286.38 1146.51C3285.29 1146.94 3276.58 1151.08 3282.89 1148.47C3289.86 1145.42 3277.23 1150.43 3277.01 1150.65C3271.35 1152.61 3265.69 1154.13 3260.03 1155.44C3258.5 1155.87 3246.09 1158.05 3254.15 1156.74C3261.33 1155.66 3251.75 1156.74 3250.44 1156.74C3243.69 1157.18 3237.16 1156.74 3230.62 1156.74C3221.26 1156.31 3231.71 1155.44 3233.02 1157.18C3232.37 1156.31 3226.7 1155.87 3225.4 1155.44C3222.13 1154.57 3219.08 1153.7 3216.03 1152.61C3214.51 1152.17 3206.67 1148.47 3213.42 1151.74C3220.17 1155 3212.33 1151.08 3211.02 1150.43C3208.19 1148.9 3205.36 1147.16 3202.53 1145.64C3195.78 1141.93 3203.62 1144.77 3204.05 1147.38C3203.84 1146.07 3199.26 1143.24 3198.17 1142.37C3195.78 1140.19 3193.82 1137.58 3191.42 1135.4C3186.19 1130.61 3198.61 1145.86 3191.42 1135.62C3175.31 1112.32 3142.85 1099.25 3116.94 1116.02C3093.63 1131.05 3080.13 1165.46 3097.34 1190.5Z" fill="#E8C4BA"/>
<path d="M1686.5 130.302V129.431C1684.97 133.787 1683.23 138.143 1681.27 142.498C1682.14 140.538 1683.01 138.796 1684.32 137.272L1675.83 148.379C1677.13 146.854 1678.44 145.33 1680.18 144.023L1669.08 152.517C1671.25 150.992 1673.43 149.685 1676.04 148.597L1662.98 154.041C1665.81 152.952 1668.64 152.081 1671.69 151.863L1657.32 153.824C1660.36 153.388 1663.41 153.606 1666.46 153.824L1652.09 151.863C1656.44 152.517 1660.58 153.823 1664.5 155.566L1651.43 150.121C1658.84 153.388 1665.59 157.962 1672.12 162.753C1678.44 166.673 1685.19 168.851 1692.38 169.287C1699.57 170.811 1706.75 170.593 1714.16 168.415C1721.35 166.673 1727.44 163.406 1732.67 158.615C1738.55 154.695 1743.34 149.686 1746.61 143.37C1753.36 130.738 1756.63 115.493 1752.05 101.336L1746.61 88.2689C1741.82 79.9929 1735.28 73.6769 1727.01 68.6678C1720.91 64.0942 1714.38 59.7385 1707.41 56.4716C1692.38 49.5023 1677.35 44.0576 1660.36 44.7109C1652.74 44.9287 1644.9 45.7999 1637.5 47.9778C1631.83 49.5023 1626.39 52.3336 1621.16 54.7292C1619.64 55.3826 1618.11 56.036 1616.81 56.9071C1611.8 59.9562 1607.01 63.8764 1602.65 67.7966C1601.56 68.6678 1600.47 69.7567 1599.6 70.8456C1590.02 81.7351 1586.75 88.0511 1581.74 101.554C1579.56 108.741 1579.13 115.928 1580.87 123.333C1581.31 130.52 1583.27 137.272 1587.4 143.587C1590.89 149.903 1595.46 155.13 1601.34 158.833C1606.57 163.624 1612.67 166.891 1619.86 168.633C1633.79 171.9 1649.47 171.029 1661.89 163.188L1673 154.695C1679.75 147.943 1684.32 139.885 1686.93 130.738L1686.5 130.302Z" fill="#F9F5E1"/>
<path d="M2264.95 156.219C2273.88 155.13 2283.02 152.952 2292.17 154.259L2277.8 152.299C2280.19 152.735 2282.37 153.17 2284.77 154.259L2271.7 148.814C2273.22 149.468 2274.53 150.339 2275.84 151.21L2264.73 142.716C2266.25 144.023 2267.78 145.33 2268.87 146.854L2260.37 135.747C2261.46 137.272 2262.33 138.796 2262.99 140.321L2257.54 127.253C2258.41 128.996 2258.85 130.956 2259.07 132.916L2257.11 118.542C2257.32 120.284 2257.32 122.026 2257.11 123.769C2256.89 131.173 2258.41 138.36 2261.9 144.676C2264.08 151.428 2267.78 157.308 2273.22 162.1C2278.23 167.327 2283.89 171.247 2290.65 173.425C2297.18 176.909 2304.15 178.434 2311.55 178.216L2325.93 176.256C2335.08 173.642 2343.13 169.069 2349.88 162.317L2358.38 151.21C2363.39 142.716 2365.78 133.569 2365.78 123.769C2365.78 122.462 2365.78 121.373 2365.78 120.066C2365.78 117.235 2364.91 113.968 2364.69 111.137C2364.48 108.305 2364.04 105.474 2363.39 102.643C2363.17 101.554 2362.73 100.247 2362.3 99.1584C2360.34 93.9314 2358.16 88.4867 2355.55 83.4775C2354.02 80.4285 2351.63 77.815 2349.45 75.2016C2347.27 72.5881 2345.53 69.539 2342.92 67.1433C2338.12 62.3519 2332.68 57.7783 2326.58 54.7293C2320.48 51.6802 2313.08 48.1956 2305.89 47.1067C2298.7 46.0177 2290.86 44.4932 2283.46 44.9288C2277.14 45.3644 2270.83 46.4532 2264.29 47.3243C2256.89 47.1066 2249.7 48.6311 2243.39 52.1157C2236.63 54.2936 2230.75 57.9962 2225.96 63.4409C2220.74 68.4501 2216.82 74.1125 2214.64 80.864C2211.15 87.3977 2209.63 94.3669 2209.85 101.772L2211.81 116.146C2214.42 125.293 2218.99 133.351 2225.75 140.103L2236.85 148.597C2245.35 153.606 2254.49 156.002 2264.29 156.002L2264.95 156.219Z" fill="#F9F5E1"/>
<path d="M1840.93 581.838C1886.93 542.338 2004.12 479.838 2096.92 555.838C2129.43 581.338 2139.93 615.838 2222.43 635.338C2239.89 639.465 2247.43 643.082 2272.93 656.838C2324.42 684.611 2354.93 736.254 2356.43 774.838C2357.93 813.338 2379.93 878.838 2250.93 1029.84C2257.93 1053.34 2273.43 1103.84 2260.93 1135.84C2248.43 1167.84 2232.43 1247.34 1987.92 1263.84C1918.43 1266.34 1859.43 1237.84 1840.93 1225.34C1830.57 1218.34 1812.43 1203.34 1739.42 1218.34C1629.93 1228.34 1610.93 1160.84 1628.42 1025.34C1565.22 977.937 1488.43 794.338 1683.93 701.338C1698.51 693.521 1714.93 686.819 1730.92 676.338C1761.42 656.338 1817.93 599.338 1840.93 581.838ZM1949.81 742.073C1865.61 742.073 1797.35 810.329 1797.35 894.526C1797.35 978.723 1865.61 1046.98 1949.81 1046.98C2034 1046.98 2102.26 978.723 2102.26 894.526C2102.26 810.329 2034 742.073 1949.81 742.073Z" fill="#F9F5E1"/>
</g>
<defs>
<clipPath id="clip0_118_2528">
<rect width="5136" height="1417" fill="white"/>
</clipPath>
</defs>
</svg>
