<svg width="5136" height="1417" viewBox="0 0 5136 1417" fill="none" xmlns="http://www.w3.org/2000/svg">
<g clip-path="url(#clip0_118_2528)">
<path d="M163.064 1289.6C160.45 1308.98 153.046 1325.75 140.632 1340.12C128.436 1354.5 114.279 1364.52 98.5984 1369.74C82.9176 1374.97 67.019 1374.97 51.3382 1369.74C35.6574 1364.52 23.2434 1351.88 14.5318 1331.63C10.176 1322.05 7.12701 1304.62 5.38469 1279.8C3.64238 1254.75 2.33564 1228.83 1.46448 1201.61C0.593326 1174.39 0.37548 1149.34 0.811059 1126.04C1.24664 1102.73 1.46448 1088.58 1.46448 1083.35V808.717C1.46448 806.103 1.24664 793.036 0.811059 769.297C0.37548 745.558 0.37548 719.641 0.811059 691.11C1.24664 662.58 2.55338 635.138 4.73127 608.35C6.90916 581.562 11.0471 563.486 17.1452 553.903C24.9857 540.836 34.5684 531.253 46.1112 525.59C57.4363 519.928 69.1968 517.532 80.9575 518.403C92.7181 519.274 104.696 522.759 116.457 528.857C128.218 534.955 138.236 544.102 146.076 556.516C149.561 560.872 152.828 566.099 155.877 572.197C158.926 578.295 160.451 583.958 160.451 589.185C161.322 631.218 161.322 672.598 160.451 713.325C159.579 754.052 159.144 795.432 159.144 837.465C190.723 819.171 219.907 798.263 246.477 774.959C273.265 751.656 299.182 725.303 324.664 695.466C330.762 687.626 339.473 675.647 351.016 659.967C362.341 644.286 374.755 627.951 387.822 611.399C400.89 594.847 414.175 579.166 427.242 564.792C440.31 550.418 451.852 540.836 461.435 536.48C480.601 526.897 499.113 523.412 516.536 526.026C533.959 528.639 548.551 535.391 559.876 546.498C571.201 557.388 578.388 571.544 581.655 588.532C584.704 605.519 581.437 623.378 571.854 641.672C568.37 649.513 564.667 656.046 560.747 661.491C556.827 666.718 552.906 671.509 548.986 675.865C545.066 680.221 540.928 685.012 536.572 690.239C532.217 695.466 527.861 701.564 523.505 708.534C512.18 726.828 498.459 745.558 482.778 764.288C467.098 783.236 450.328 801.53 432.905 819.389C415.264 837.247 397.405 854.671 379.111 871.223C360.817 887.775 343.176 903.673 326.624 918.483C348.403 942.222 370.399 965.743 392.396 989.482C414.175 1013.22 436.607 1036.74 459.475 1060.48C464.702 1065.71 476.027 1076.82 493.668 1094.02C511.091 1111.01 529.821 1129.96 549.422 1150.43C569.241 1171.12 587.099 1191.37 603.216 1211.63C619.332 1231.88 628.915 1247.56 631.528 1258.89C635.884 1276.53 635.013 1292.86 628.915 1308.11C622.817 1323.35 613.452 1335.99 600.602 1345.57C587.971 1355.15 573.379 1360.38 557.262 1361.25C541.146 1362.12 525.029 1356.89 509.349 1345.57C502.379 1340.34 495.192 1334.03 487.57 1326.62C480.165 1319.22 473.196 1311.59 466.444 1303.53C459.911 1295.69 453.595 1288.07 447.279 1280.45C441.181 1273.04 435.954 1267.16 431.598 1262.81C390.436 1218.16 349.709 1174.39 309.418 1131.48C269.127 1088.58 228.401 1045.24 187.239 1001.46C182.883 1003.2 178.091 1005.16 172.864 1007.34C167.638 1009.52 162.846 1011.48 158.49 1013.22C158.49 1057.87 158.926 1102.3 159.797 1146.73C160.668 1190.94 161.975 1235.37 163.717 1280.23V1289.38L163.064 1289.6Z" fill="#E8C4BA"/>
<path d="M751.966 592.452C754.58 583.087 758.718 573.94 764.598 565.01C770.478 556.081 777.448 548.241 785.506 541.489C793.564 534.738 802.493 529.729 812.294 526.897C822.094 523.848 832.113 524.066 842.131 527.551C873.492 514.919 905.507 504.247 938.394 495.753C971.062 487.26 1003.73 482.468 1036.4 481.161C1069.07 479.855 1101.3 482.904 1133.31 490.091C1165.11 497.278 1195.82 510.781 1225.66 530.164C1249.4 545.409 1270.52 564.575 1288.6 587.443C1306.89 610.311 1321.92 634.485 1333.9 659.967C1354.37 705.92 1363.52 751.438 1361.99 796.956C1360.25 842.475 1349.58 884.726 1330.2 923.71C1310.6 962.694 1283.37 997.105 1248.09 1026.94C1212.81 1056.78 1171.43 1078.34 1123.95 1091.84C1088.23 1102.08 1052.08 1106.87 1015.06 1106.44C978.031 1106 941.878 1103.6 906.161 1099.47V1222.95C906.161 1232.32 906.596 1242.12 907.468 1252.35C908.339 1262.59 908.557 1272.83 908.121 1282.85C907.685 1293.08 906.379 1303.1 904.201 1312.68C902.023 1322.48 898.103 1331.63 892.005 1340.12C881.769 1357.11 868.701 1367.57 852.585 1371.27C836.468 1375.19 821.005 1374.32 806.196 1368.65C791.386 1363.21 778.536 1353.84 768.083 1340.56C757.411 1327.27 752.184 1311.38 752.184 1292.86V1063.53C736.068 1055.04 724.089 1044.37 716.467 1031.73C708.844 1019.1 705.359 1006.03 706.231 992.967C707.102 979.9 711.24 967.268 718.862 955.29C726.485 943.311 737.157 933.728 750.66 926.106V600.075L751.966 592.452ZM1122.64 648.424C1086.93 634.05 1050.77 629.694 1013.75 635.792C976.724 641.672 941.007 652.78 906.161 668.896V946.578C946.016 953.329 986.743 955.072 1028.34 951.587C1069.94 948.102 1108.05 935.471 1142.9 913.474C1167.51 897.357 1184.5 876.885 1193.86 852.275C1203.23 827.665 1206.49 802.619 1204.1 777.138C1201.48 751.656 1192.99 727.264 1178.61 703.96C1164.24 680.657 1145.51 662.145 1122.64 648.642V648.424Z" fill="#E8C4BA"/>
<path d="M3563.84 587.007C3561.66 646.246 3559.27 705.267 3556.22 763.852C3553.17 822.656 3548.16 881.676 3541.19 940.697C3533.13 999.065 3522.03 1056.56 3508.09 1113.4C3493.93 1170.47 3469.32 1226.66 3434.26 1281.97C3415.09 1310.72 3389.61 1332.28 3357.38 1346.44C3325.14 1360.81 3291.17 1368 3255.02 1368C3218.86 1368 3186.2 1361.03 3153.96 1347.31C3121.95 1333.37 3095.81 1312.46 3075.56 1284.81C3068.59 1274.57 3061.84 1263.46 3055.3 1251.48C3048.77 1239.5 3043.11 1228.4 3038.1 1218.16C3032.87 1229.27 3026.99 1240.59 3019.8 1252.14C3012.84 1263.68 3005.21 1275.66 2997.15 1287.64C2977.99 1315.3 2952.73 1336.2 2920.93 1349.92C2889.13 1363.86 2855.59 1370.83 2820.53 1370.83C2782.2 1370.83 2746.91 1363.65 2714.68 1349.27C2682.45 1334.9 2656.75 1313.55 2637.58 1284.81C2613.41 1247.78 2593.81 1208.36 2578.78 1166.11C2563.54 1124.08 2551.78 1080.95 2543.28 1036.53C2534.57 992.096 2529.13 947.231 2526.51 901.931C2524.12 856.631 2522.81 811.766 2522.81 767.337C2522.81 736.846 2523.03 706.792 2523.46 677.172C2524.12 647.553 2524.77 618.587 2525.86 589.838C2530.87 568.495 2541.54 552.379 2558.09 541.271C2574.43 530.164 2592.72 524.719 2612.76 524.719C2631.7 524.719 2649.56 529.946 2666.55 540.618C2683.54 551.29 2695.08 567.188 2701.18 588.532V631.436C2700.09 655.393 2699.22 679.568 2698.78 703.525C2698.35 727.699 2698.13 752.092 2698.13 777.137C2698.13 852.057 2703.14 926.106 2713.16 999.065C2723.39 1072.02 2745.17 1139.54 2778.49 1201.61L2805.94 1226.66L2824.23 1230.79L2839.48 1225.13L2854.5 1207.05C2876.93 1169.16 2894.36 1128.65 2906.99 1085.75C2919.62 1042.84 2929.64 998.412 2936.61 952.676C2943.8 906.722 2948.59 860.333 2950.98 813.073C2953.6 766.03 2955.99 719.205 2957.95 673.034C2957.95 663.887 2958.17 654.086 2958.61 643.85C2959.26 633.832 2959.91 624.031 2961 614.884C2966.01 593.541 2976.9 577.86 2993.45 567.624C3010 557.388 3028.52 552.379 3048.55 552.379C3068.59 552.379 3085.79 557.388 3103 567.624C3119.99 577.86 3132.18 593.541 3139.15 614.884C3138.28 641.672 3137.41 668.678 3136.97 695.902C3136.54 723.126 3136.1 750.785 3136.1 778.444C3136.1 853.364 3141.55 927.195 3152 999.719C3162.67 1072.24 3186.63 1140.63 3223.87 1204.44L3229.97 1216.85L3243.47 1225.13L3254.15 1229.27C3254.15 1229.27 3256.98 1228.83 3260.03 1227.96C3263.07 1227.09 3265.69 1226.66 3267.65 1226.66C3293.78 1200.74 3312.73 1168.72 3324.27 1130.83C3335.82 1092.93 3345.18 1054.6 3352.37 1015.62C3366.31 944.4 3375.45 873.401 3379.59 802.837C3383.51 732.055 3386.56 660.62 3388.52 588.532C3393.53 567.188 3403.98 551.072 3420.1 539.965C3436 528.857 3453.86 523.195 3473.89 523.195C3493.93 523.195 3512.44 528.639 3529.21 539.093C3546.42 549.765 3557.74 565.882 3563.84 587.007Z" fill="#E8C4BA"/>
<path d="M3828.89 1289.6C3826.28 1308.98 3818.87 1325.75 3806.46 1340.12C3794.26 1354.5 3780.11 1364.52 3764.42 1369.74C3748.74 1374.97 3732.84 1374.97 3717.16 1369.74C3701.48 1364.52 3689.07 1351.88 3680.36 1331.63C3676 1322.05 3672.95 1304.62 3671.21 1279.8C3669.47 1254.75 3668.16 1228.83 3667.29 1201.61C3666.42 1174.39 3666.2 1149.34 3666.64 1126.04C3667.07 1102.73 3667.29 1088.58 3667.29 1083.35V808.717C3667.29 806.103 3667.07 793.036 3666.64 769.297C3666.2 745.558 3666.2 719.641 3666.64 691.11C3667.07 662.58 3668.38 635.138 3670.56 608.35C3672.74 581.562 3676.87 563.486 3682.97 553.903C3690.81 540.836 3700.39 531.253 3711.94 525.59C3723.26 519.928 3735.02 517.532 3746.78 518.403C3758.54 519.274 3770.52 522.759 3782.28 528.857C3794.04 534.955 3804.06 544.102 3811.9 556.516C3815.39 560.872 3818.65 566.099 3821.7 572.197C3824.75 578.295 3826.28 583.958 3826.28 589.185C3827.15 631.218 3827.15 672.598 3826.28 713.325C3825.41 754.052 3824.97 795.432 3824.97 837.465C3856.55 819.171 3885.52 798.263 3912.3 774.959C3939.09 751.656 3965.01 725.303 3990.49 695.466C3996.59 687.626 4005.3 675.647 4016.84 659.967C4028.17 644.286 4040.58 627.951 4053.65 611.399C4066.72 594.847 4080 579.166 4093.07 564.792C4106.14 550.418 4117.68 540.836 4127.26 536.48C4146.43 526.897 4164.94 523.412 4182.58 526.026C4200 528.639 4214.59 535.391 4225.92 546.498C4237.24 557.388 4244.43 571.544 4247.7 588.532C4250.75 605.519 4247.7 623.378 4237.9 641.672C4234.41 649.513 4230.71 656.046 4226.79 661.491C4222.87 666.718 4218.95 671.509 4215.03 675.865C4211.11 680.221 4206.97 685.012 4202.62 690.239C4198.26 695.466 4193.9 701.564 4189.55 708.534C4178.22 726.828 4164.5 745.558 4148.82 764.288C4133.14 783.236 4116.37 801.53 4098.95 819.389C4081.31 837.247 4063.45 854.671 4045.15 871.223C4026.86 887.775 4009.22 903.673 3992.67 918.483C4014.66 942.222 4036.44 965.743 4058.44 989.482C4080.44 1013.22 4102.65 1036.74 4125.52 1060.48C4130.75 1065.71 4142.07 1076.82 4159.71 1094.02C4177.13 1111.01 4195.86 1129.96 4215.47 1150.43C4235.07 1171.12 4253.14 1191.37 4269.26 1211.63C4285.38 1231.88 4294.96 1247.56 4297.57 1258.89C4301.93 1276.53 4301.06 1292.86 4294.96 1308.11C4288.86 1323.35 4279.5 1335.99 4266.65 1345.57C4254.01 1355.15 4239.42 1360.38 4223.31 1361.25C4207.19 1362.12 4191.07 1356.89 4175.39 1345.57C4168.42 1340.34 4161.24 1334.03 4153.61 1326.62C4146.21 1319.22 4139.24 1311.59 4132.49 1303.53C4125.95 1295.69 4119.64 1288.07 4113.54 1280.45C4107.44 1273.04 4102.22 1267.16 4097.86 1262.81C4056.7 1218.16 4015.97 1174.39 3975.68 1131.48C3935.39 1088.58 3894.66 1045.24 3853.5 1001.46C3849.14 1003.2 3844.35 1005.16 3839.13 1007.34C3833.9 1009.52 3829.11 1011.48 3824.75 1013.22C3824.75 1057.87 3825.19 1102.3 3826.06 1146.73C3826.93 1190.94 3828.24 1235.37 3829.98 1280.23V1289.38L3828.89 1289.6Z" fill="#E8C4BA"/>
<path d="M5107.75 1293.3C5105.14 1312.25 5098.82 1328.15 5088.58 1341.43C5078.35 1354.72 5066.59 1363.86 5053.3 1369.09C5040.02 1374.32 5025.86 1374.97 5010.83 1371.05C4995.8 1367.13 4981.87 1357.11 4969.02 1340.78C4957.91 1327.06 4951.59 1311.81 4950.29 1295.26C4948.98 1278.71 4946.58 1262.16 4943.1 1245.82C4934.61 1198.78 4922.19 1150.21 4905.86 1100.56C4852.72 1101.43 4800.01 1101.86 4747.74 1101.86C4695.47 1101.86 4643.2 1102.3 4590.94 1103.17C4583.31 1125.38 4576.56 1148.03 4570.9 1171.34C4565.24 1194.42 4560.01 1217.07 4554.78 1239.5C4550.43 1256.71 4546.72 1274.35 4543.24 1292.86C4539.75 1311.38 4532.13 1327.27 4520.15 1340.99C4505.56 1358.2 4489.88 1367.78 4473.33 1369.96C4456.56 1372.14 4441.53 1369.31 4428.46 1361.68C4415.18 1354.06 4404.51 1342.08 4396.23 1326.4C4387.96 1310.72 4385.34 1292.43 4387.96 1271.74C4390.57 1245.17 4395.58 1219.03 4403.42 1193.33C4411.04 1167.63 4418.45 1141.94 4425.2 1116.24C4463.75 969.01 4513.4 826.358 4574.17 688.279C4579.39 676.301 4584.62 664.758 4590.28 653.651C4595.94 642.543 4601.17 631.436 4606.4 620.329C4612.28 608.35 4618.38 595.501 4624.47 581.78C4630.36 568.059 4637.54 555.428 4645.6 543.885C4653.66 532.342 4663.46 522.541 4674.57 514.265C4685.67 506.207 4699.39 502.069 4715.73 502.069C4737.07 502.069 4755.15 509.038 4769.74 522.541C4827.89 580.909 4876.02 646.464 4913.7 719.859C4951.38 793.036 4985.13 867.738 5015.19 943.964C5033.26 943.093 5050.69 943.093 5067.89 943.964C5085.1 944.836 5100.34 952.458 5114.06 967.05C5126.04 979.028 5133.01 991.878 5135.19 1005.6C5137.37 1019.32 5136.06 1032.6 5131.27 1045.45C5126.48 1058.3 5118.86 1069.41 5108.18 1078.78C5097.51 1088.14 5084.45 1094.67 5068.98 1098.16C5077.48 1128.21 5085.1 1158.71 5091.41 1190.07C5097.73 1221.43 5103.18 1252.79 5107.53 1284.59V1293.52L5107.75 1293.3ZM4845.75 943.964C4829.41 905.416 4812.21 867.085 4793.7 828.971C4775.18 790.858 4754.49 754.705 4731.41 720.512C4714.2 758.19 4698.09 795.649 4683.28 832.891C4668.25 870.134 4654.31 908.029 4641.46 946.578C4681.75 945.707 4717.04 945.271 4747.53 945.271C4778.02 945.271 4810.68 944.836 4845.75 943.964Z" fill="#E8C4BA"/>
<path d="M1949.81 371.831C1661.24 371.831 1427.11 605.955 1427.11 894.526C1427.11 1183.1 1661.24 1417.22 1949.81 1417.22C2238.38 1417.22 2472.5 1183.1 2472.5 894.526C2472.5 605.955 2238.38 371.831 1949.81 371.831ZM1956.34 1038.27C1884.03 1038.27 1825.23 979.464 1825.23 907.158C1825.23 834.852 1884.03 776.049 1956.34 776.049C2028.65 776.049 2087.45 834.852 2087.45 907.158C2087.45 979.464 2028.65 1038.27 1956.34 1038.27Z" fill="#DDA873"/>
<mask id="mask0_118_2528" style="mask-type:luminance" maskUnits="userSpaceOnUse" x="1427" y="371" width="1046" height="1047">
<path d="M1949.81 371.831C1661.24 371.831 1427.11 605.955 1427.11 894.526C1427.11 1183.1 1661.24 1417.22 1949.81 1417.22C2238.38 1417.22 2472.5 1183.1 2472.5 894.526C2472.5 605.955 2238.38 371.831 1949.81 371.831ZM1956.34 1038.27C1884.03 1038.27 1825.23 979.464 1825.23 907.158C1825.23 834.852 1884.03 776.049 1956.34 776.049C2028.65 776.049 2087.45 834.852 2087.45 907.158C2087.45 979.464 2028.65 1038.27 1956.34 1038.27Z" fill="white"/>
</mask>
<g mask="url(#mask0_118_2528)">
<path d="M1650.13 1031.3C1655.36 1041.32 1661.45 1050.68 1668.2 1059.61C1722 1136.71 1857.25 1092.5 1827.41 992.531C1816.95 957.903 1816.52 930.461 1833.29 897.357L1671.04 853.364C1665.81 975.762 1685.19 1110.79 1806.28 1171.34C1908.43 1222.52 1982.91 1087.05 1894.27 1020.84L1872.06 1001.24L1766.43 1138.02C1911.26 1224.04 2100.52 1178.31 2179.36 1024.76C2272.79 843.128 2120.55 691.546 1957.86 630.347C1852.67 590.927 1807.37 759.279 1911.48 798.263C1973.33 821.567 2065.23 879.716 2019.5 953.547C1982.04 1014.09 1911.69 1021.28 1854.41 987.304C1770.57 937.43 1675.39 1055.69 1748.79 1124.08C1767.3 1141.28 1786.03 1155.87 1806.28 1170.9L1894.27 1020.41C1833.72 990.136 1842.87 911.078 1845.48 852.928C1849.19 768.208 1722.22 732.055 1683.23 808.935C1644.25 885.815 1635.97 957.903 1659.93 1038.27L1819.13 971.188C1812.38 962.259 1806.28 952.676 1801.06 942.875C1744.65 845.959 1593.94 933.728 1650.56 1030.86L1650.13 1031.3Z" fill="#DDA873"/>
<path d="M1795.39 683.488C1792.34 687.408 1789.51 691.11 1786.03 694.595C1786.03 694.595 1770.13 709.84 1778.84 702.218C1786.46 695.466 1774.92 705.049 1773.18 706.138C1768.17 709.405 1763.16 712.672 1757.93 715.939C1739.64 727.046 1721.13 737.282 1703.7 749.914C1649.26 789.987 1618.11 843.563 1617.68 912.167C1617.02 1024.33 1791.26 1024.33 1791.91 912.167C1792.56 901.06 1791.91 900.406 1790.6 910.207C1791.47 905.416 1792.78 900.624 1794.52 895.833C1790.17 905.851 1790.38 906.505 1794.96 898.011C1787.77 906.505 1787.55 907.158 1793.87 899.971C1796.7 897.575 1813.69 884.943 1797.14 896.268C1804.98 891.041 1812.82 886.032 1820.87 881.023C1855.94 859.898 1892.75 839.208 1918.44 806.539C1947.41 769.515 1954.6 719.423 1918.44 683.27C1888.39 653.215 1824.36 646.028 1795.18 683.27L1795.39 683.488Z" fill="#DDA873"/>
<path d="M1927.81 1084C1918.01 1080.52 1908.21 1076.82 1898.63 1072.68L1919.53 1081.39C1905.16 1075.29 1891.22 1068.54 1877.28 1061.14C1836.99 1039.79 1780.58 1049.59 1758.15 1092.5C1736.81 1133.01 1746.39 1188.76 1789.51 1211.63C1819.13 1227.31 1850.06 1240.81 1881.64 1251.92C1924.54 1267.16 1978.77 1234.71 1988.79 1191.16C1999.9 1142.37 1973.98 1100.34 1928.03 1084H1927.81Z" fill="#DDA873"/>
<path d="M1765.34 873.183C1827.63 750.349 1984.65 615.973 2090.28 772.999C2152.57 865.56 2303.5 778.444 2240.77 685.012C2061.31 418.002 1743.34 531.906 1615.06 785.196C1564.54 884.943 1714.81 973.366 1765.56 873.183H1765.34Z" fill="#DDA873"/>
<path d="M2096.6 1000.59C2047.59 1054.38 1983.13 1075.29 1913 1087.71C1866.61 1095.98 1840.48 1152.39 1852.24 1194.86C1865.74 1243.64 1913 1264.12 1959.39 1255.62C2056.96 1237.98 2151.91 1198.12 2219.86 1123.64C2295.22 1040.88 2172.39 917.176 2096.6 1000.37V1000.59Z" fill="#DDA873"/>
<path d="M1798.01 883.201C1826.32 741.855 2024.94 717.027 2113.15 817.211C2187.41 901.495 2310.25 778.008 2236.42 693.942C2064.8 498.802 1683.45 570.237 1630.09 836.812C1608.09 946.36 1776.01 993.185 1798.01 883.201Z" fill="#DDA873"/>
<path d="M1779.49 838.989C1781.45 819.388 1795.83 786.502 1811.94 768.861C1830.46 748.825 1846.36 741.637 1868.57 745.775C1914.74 754.705 1962.66 732.708 1975.72 685.012C1987.48 642.326 1961.35 586.789 1914.96 577.86C1744.87 544.756 1621.82 678.478 1605.26 838.989C1600.47 885.814 1648.82 926.105 1692.38 926.105C1743.56 926.105 1774.7 886.032 1779.49 838.989Z" fill="#DDA873"/>
<path d="M1999.03 733.58C2040.84 753.181 2083.31 771.257 2123.38 794.125C2163.46 816.993 2220.52 804.797 2242.51 762.763C2264.51 720.73 2253.62 667.589 2211.15 643.632C2168.68 619.676 2128.61 602.688 2086.8 583.087C2044.98 563.486 1990.97 570.237 1967.66 614.449C1947.19 652.997 1954.82 713.107 1999.03 733.58Z" fill="#DDA873"/>
<path d="M1826.32 783.018C1841.35 720.512 1894.92 688.715 1958.3 703.307C2015.58 716.374 2052.17 761.239 2078.3 810.895C2131.01 909.989 2281.28 822.002 2228.79 722.908C2169.55 611.182 2060.88 526.244 1929.99 525.59C1799.1 524.937 1688.46 610.964 1658.4 736.628C1632.27 845.523 1800.18 892.13 1826.32 783.018Z" fill="#DDA873"/>
<path d="M2048.68 1039.14C1976.59 1228.4 1697.17 1044.37 1781.45 867.302C1829.37 766.684 1679.31 678.043 1630.96 779.315C1577.17 892.348 1580.44 1020.19 1639.02 1120.37C1668.86 1123.21 1692.81 1139.32 1710.46 1163.5C1717.21 1172.86 1722 1183.32 1724.83 1194.64C1735.28 1205.31 1743.99 1217.29 1750.09 1230.36C1750.96 1232.1 1751.4 1233.62 1752.05 1235.37C1759.24 1239.72 1766.21 1244.08 1773.83 1248.22C1848.53 1286.98 1948.28 1303.75 2030.61 1281.97C2130.35 1255.62 2181.75 1176.56 2216.38 1085.53C2256.45 980.771 2087.88 935.253 2048.46 1039.14H2048.68Z" fill="#DDA873"/>
<path d="M2115.98 1215.77C2247.96 1163.06 2347.05 1052.86 2348.8 904.98C2350.54 748.389 2245.34 649.948 2116.41 581.78C2017.32 529.511 1929.12 679.785 2028.43 732.273C2092.46 766.03 2159.1 799.134 2172.39 877.538C2185.67 955.943 2138.63 1020.41 2069.81 1047.85C1967.01 1089.01 2011.88 1257.58 2116.2 1215.77H2115.98Z" fill="#DDA873"/>
<path d="M1774.27 923.056C1747.92 882.765 1705.88 831.803 1735.07 784.325C1761.85 740.767 1825.23 717.681 1872.27 709.84C1982.69 691.546 1935.87 523.63 1825.88 541.925C1729.19 558.041 1623.56 623.16 1575.64 710.712C1519.02 813.944 1564.97 921.314 1623.78 1011.26C1682.58 1101.21 1835.68 1017.58 1774.27 923.274V923.056Z" fill="#DDA873"/>
<path d="M1945.67 700.04C1974.85 685.448 2006.43 662.362 2032.78 688.062C2057.61 712.236 2073.73 752.745 2085.27 784.542C2123.6 889.081 2291.95 843.781 2253.19 738.153C2225.09 661.709 2185.45 576.553 2114.89 530.164C2033 476.37 1936.96 509.692 1857.68 549.547C1757.5 599.857 1845.7 750.349 1945.67 700.04Z" fill="#DDA873"/>
</g>
<path d="M1639.89 49.9379C1603.09 56.4716 1579.35 85.6554 1575.43 114.186C1571.51 142.716 1583.27 171.247 1595.46 198.47C1637.5 292.991 1689.33 389.69 1788.21 455.245C1798.22 461.778 1810.64 468.312 1823.49 465.699C1833.72 463.521 1840.26 455.898 1844.83 448.493C1866.83 411.904 1860.29 369.435 1853.54 329.362C1839.39 246.82 1823.49 160.793 1761.2 92.4069C1741.38 70.6279 1714.16 49.938 1679.53 46.4534C1644.9 42.9688 1605.7 65.6187 1612.67 91.7535" fill="#F9F5E1"/>
<path d="M1647.51 83.4775C1663.41 174.949 1696.73 264.243 1732.67 352.448C1739.2 368.564 1748.57 386.641 1769.48 391.868C1761.64 325.442 1747.04 259.887 1732.45 194.115C1726.14 166.02 1719.39 136.836 1697.39 113.75C1690.2 114.404 1688.46 121.591 1688.68 127.035C1690.64 186.056 1704.58 244.86 1730.27 300.396C1741.16 324.135 1754.88 348.092 1779.71 364.862C1783.2 367.257 1787.55 369.653 1792.13 369C1800.62 367.911 1820.44 465.481 1819.13 458.947C1804.54 385.552 1764.03 206.311 1735.5 135.529C1733.76 131.173 1730.06 125.729 1724.18 126.164C1722.65 132.916 1720.91 139.667 1719.38 146.419" fill="#F9F5E1"/>
<path d="M1638.37 99.5938C1640.76 90.8822 1652.52 84.7842 1664.07 84.5665C1675.61 84.3487 1686.72 89.14 1694.56 95.8914C1702.4 102.643 1707.41 110.701 1711.76 118.977C1724.83 144.458 1732.02 171.682 1732.89 198.906" fill="#F9F5E1"/>
<path d="M2319.39 52.1157C2286.73 37.7416 2243.17 46.671 2214.86 65.6187C2186.54 84.5664 2169.56 111.354 2154.09 137.707C2100.3 228.743 2051.73 326.531 2065.45 425.625C2066.76 435.643 2070.24 446.968 2081.79 451.542C2091.37 455.244 2102.91 453.067 2112.71 450.018C2161.5 434.554 2194.82 400.361 2225.53 367.475C2288.9 299.743 2354.24 228.525 2369.92 146.201C2374.93 119.848 2373.62 90.6645 2351.41 70.1923C2329.19 49.72 2280.19 45.7998 2262.12 68.4499" fill="#F9F5E1"/>
<path d="M2295 80.6462C2224.87 155.784 2169.34 238.326 2116.63 321.522C2107.05 336.549 2097.68 354.843 2108.36 369.435C2161.93 316.948 2210.06 261.194 2258.2 205.657C2278.67 181.918 2300.01 156.873 2304.37 128.56C2298.7 125.293 2290.86 129.649 2286.29 133.787C2234.89 177.998 2192.64 228.09 2161.71 282.319C2148.43 305.405 2137.1 330.015 2140.15 355.061C2140.59 358.546 2141.68 362.684 2145.6 364.644C2152.79 368.346 2161.71 362.03 2166.51 356.586C2221.39 295.387 2270.39 231.139 2313.08 164.495C2315.69 160.357 2317.87 154.477 2313.08 151.646C2305.89 155.784 2298.7 159.922 2291.3 164.06" fill="#F9F5E1"/>
<path d="M2273.66 87.6156C2283.24 82.3886 2297.18 84.1309 2305.89 90.0113C2314.6 95.8916 2318.31 105.256 2318.09 114.186C2317.87 123.115 2314.17 131.827 2309.81 140.103C2296.74 165.584 2277.58 189.106 2253.84 209.578" fill="#F9F5E1"/>
<path d="M2660.23 1208.8C2705.1 1273.7 2784.81 1297.66 2860.17 1276.53C2926.37 1257.8 2984.09 1208.58 3014.36 1146.94C3026.77 1121.46 3022.2 1086.83 2994.76 1072.46C2970.37 1059.61 2933.56 1064.62 2920.27 1092.06C2915.27 1102.52 2908.95 1111.66 2902.85 1121.46C2909.39 1113.84 2899.37 1127.13 2902.85 1121.46C2901.11 1123.42 2899.37 1125.6 2897.62 1127.56C2893.49 1132.13 2889.35 1136.49 2884.99 1140.63C2883.03 1142.37 2881.07 1144.33 2878.89 1146.07C2877.81 1146.94 2876.93 1147.82 2875.85 1148.69C2872.8 1151.3 2873.89 1150.43 2878.89 1146.51C2878.89 1148.69 2867.57 1154.35 2865.61 1155.66C2860.38 1158.92 2854.94 1161.97 2849.28 1164.8C2848.19 1165.24 2839.47 1169.38 2845.79 1166.76C2852.76 1163.71 2840.13 1168.72 2839.91 1168.94C2834.25 1170.9 2828.59 1172.43 2822.92 1173.73C2821.4 1174.17 2808.98 1176.35 2817.04 1175.04C2824.23 1173.95 2814.65 1175.04 2813.34 1175.04C2806.59 1175.48 2800.06 1175.04 2793.52 1175.04C2784.16 1174.6 2794.61 1173.73 2795.92 1175.48C2795.26 1174.6 2789.6 1174.17 2788.29 1173.73C2785.03 1172.86 2781.98 1171.99 2778.93 1170.9C2777.41 1170.47 2769.56 1166.76 2776.32 1170.03C2783.07 1173.3 2775.23 1169.38 2773.92 1168.72C2771.09 1167.2 2768.26 1165.46 2765.43 1163.93C2758.68 1160.23 2766.52 1163.06 2766.95 1165.67C2766.73 1164.37 2762.16 1161.54 2761.07 1160.67C2758.68 1158.49 2756.72 1155.87 2754.32 1153.7C2749.09 1148.9 2761.51 1164.15 2754.32 1153.91C2738.2 1130.61 2705.75 1117.54 2679.84 1134.31C2656.53 1149.34 2643.03 1183.75 2660.23 1208.8Z" fill="#E8C4BA"/>
<path d="M3097.34 1190.5C3142.2 1255.4 3221.91 1279.36 3297.27 1258.23C3363.48 1239.5 3421.19 1190.28 3451.46 1128.65C3463.88 1103.17 3459.3 1068.54 3431.86 1054.17C3407.47 1041.32 3370.66 1046.33 3357.38 1073.77C3352.37 1084.22 3346.05 1093.37 3339.95 1103.17C3346.49 1095.55 3336.47 1108.83 3339.95 1103.17C3338.21 1105.13 3336.47 1107.31 3334.73 1109.27C3330.59 1113.84 3326.45 1118.2 3322.1 1122.33C3320.14 1124.08 3318.18 1126.04 3316 1127.78C3314.91 1128.65 3314.04 1129.52 3312.95 1130.39C3309.9 1133.01 3310.99 1132.13 3316 1128.21C3316 1130.39 3304.67 1136.05 3302.71 1137.36C3297.49 1140.63 3292.04 1143.68 3286.38 1146.51C3285.29 1146.94 3276.58 1151.08 3282.89 1148.47C3289.86 1145.42 3277.23 1150.43 3277.01 1150.65C3271.35 1152.61 3265.69 1154.13 3260.03 1155.44C3258.5 1155.87 3246.09 1158.05 3254.15 1156.74C3261.33 1155.66 3251.75 1156.74 3250.44 1156.74C3243.69 1157.18 3237.16 1156.74 3230.62 1156.74C3221.26 1156.31 3231.71 1155.44 3233.02 1157.18C3232.37 1156.31 3226.7 1155.87 3225.4 1155.44C3222.13 1154.57 3219.08 1153.7 3216.03 1152.61C3214.51 1152.17 3206.67 1148.47 3213.42 1151.74C3220.17 1155 3212.33 1151.08 3211.02 1150.43C3208.19 1148.9 3205.36 1147.16 3202.53 1145.64C3195.78 1141.93 3203.62 1144.77 3204.05 1147.38C3203.84 1146.07 3199.26 1143.24 3198.17 1142.37C3195.78 1140.19 3193.82 1137.58 3191.42 1135.4C3186.19 1130.61 3198.61 1145.86 3191.42 1135.62C3175.31 1112.32 3142.85 1099.25 3116.94 1116.02C3093.63 1131.05 3080.13 1165.46 3097.34 1190.5Z" fill="#E8C4BA"/>
<path d="M1686.5 130.302V129.431C1684.97 133.787 1683.23 138.143 1681.27 142.498C1682.14 140.538 1683.01 138.796 1684.32 137.272L1675.83 148.379C1677.13 146.854 1678.44 145.33 1680.18 144.023L1669.08 152.517C1671.25 150.992 1673.43 149.685 1676.04 148.597L1662.98 154.041C1665.81 152.952 1668.64 152.081 1671.69 151.863L1657.32 153.824C1660.36 153.388 1663.41 153.606 1666.46 153.824L1652.09 151.863C1656.44 152.517 1660.58 153.823 1664.5 155.566L1651.43 150.121C1658.84 153.388 1665.59 157.962 1672.12 162.753C1678.44 166.673 1685.19 168.851 1692.38 169.287C1699.57 170.811 1706.75 170.593 1714.16 168.415C1721.35 166.673 1727.44 163.406 1732.67 158.615C1738.55 154.695 1743.34 149.686 1746.61 143.37C1753.36 130.738 1756.63 115.493 1752.05 101.336L1746.61 88.2689C1741.82 79.9929 1735.28 73.6769 1727.01 68.6678C1720.91 64.0942 1714.38 59.7385 1707.41 56.4716C1692.38 49.5023 1677.35 44.0576 1660.36 44.7109C1652.74 44.9287 1644.9 45.7999 1637.5 47.9778C1631.83 49.5023 1626.39 52.3336 1621.16 54.7292C1619.64 55.3826 1618.11 56.036 1616.81 56.9071C1611.8 59.9562 1607.01 63.8764 1602.65 67.7966C1601.56 68.6678 1600.47 69.7567 1599.6 70.8456C1590.02 81.7351 1586.75 88.0511 1581.74 101.554C1579.56 108.741 1579.13 115.928 1580.87 123.333C1581.31 130.52 1583.27 137.272 1587.4 143.587C1590.89 149.903 1595.46 155.13 1601.34 158.833C1606.57 163.624 1612.67 166.891 1619.86 168.633C1633.79 171.9 1649.47 171.029 1661.89 163.188L1673 154.695C1679.75 147.943 1684.32 139.885 1686.93 130.738L1686.5 130.302Z" fill="#F9F5E1"/>
<path d="M2264.95 156.219C2273.88 155.13 2283.02 152.952 2292.17 154.259L2277.8 152.299C2280.19 152.735 2282.37 153.17 2284.77 154.259L2271.7 148.814C2273.22 149.468 2274.53 150.339 2275.84 151.21L2264.73 142.716C2266.25 144.023 2267.78 145.33 2268.87 146.854L2260.37 135.747C2261.46 137.272 2262.33 138.796 2262.99 140.321L2257.54 127.253C2258.41 128.996 2258.85 130.956 2259.07 132.916L2257.11 118.542C2257.32 120.284 2257.32 122.026 2257.11 123.769C2256.89 131.173 2258.41 138.36 2261.9 144.676C2264.08 151.428 2267.78 157.308 2273.22 162.1C2278.23 167.327 2283.89 171.247 2290.65 173.425C2297.18 176.909 2304.15 178.434 2311.55 178.216L2325.93 176.256C2335.08 173.642 2343.13 169.069 2349.88 162.317L2358.38 151.21C2363.39 142.716 2365.78 133.569 2365.78 123.769C2365.78 122.462 2365.78 121.373 2365.78 120.066C2365.78 117.235 2364.91 113.968 2364.69 111.137C2364.48 108.305 2364.04 105.474 2363.39 102.643C2363.17 101.554 2362.73 100.247 2362.3 99.1584C2360.34 93.9314 2358.16 88.4867 2355.55 83.4775C2354.02 80.4285 2351.63 77.815 2349.45 75.2016C2347.27 72.5881 2345.53 69.539 2342.92 67.1433C2338.12 62.3519 2332.68 57.7783 2326.58 54.7293C2320.48 51.6802 2313.08 48.1956 2305.89 47.1067C2298.7 46.0177 2290.86 44.4932 2283.46 44.9288C2277.14 45.3644 2270.83 46.4532 2264.29 47.3243C2256.89 47.1066 2249.7 48.6311 2243.39 52.1157C2236.63 54.2936 2230.75 57.9962 2225.96 63.4409C2220.74 68.4501 2216.82 74.1125 2214.64 80.864C2211.15 87.3977 2209.63 94.3669 2209.85 101.772L2211.81 116.146C2214.42 125.293 2218.99 133.351 2225.75 140.103L2236.85 148.597C2245.35 153.606 2254.49 156.002 2264.29 156.002L2264.95 156.219Z" fill="#F9F5E1"/>
<path d="M1707.19 950.716C1666.68 919.136 1652.52 865.995 1689.11 825.051C1707.62 804.143 1736.59 796.956 1760.98 785.196C1792.56 770.168 1820.44 747.736 1846.36 724.432C1886.86 687.844 1929.33 634.703 1987.92 628.823C2011 626.427 2025.16 636.663 2040.62 652.779C2063.93 677.39 2085.92 700.693 2117.29 715.285C2143.42 727.481 2171.08 734.451 2198.09 743.598C2216.38 749.696 2235.76 757.754 2244.69 775.831C2269.08 825.704 2226.62 884.508 2198.3 922.185C2179.79 946.796 2155.83 969.881 2145.82 999.501C2139.5 1018.23 2139.5 1037.61 2143.64 1057C2146.47 1070.06 2158.88 1088.79 2157.58 1101.86C2155.83 1118.85 2135.36 1128.21 2120.99 1133.22C2091.15 1143.68 2057.61 1148.03 2026.47 1152.17C1992.93 1156.53 1955.9 1158.92 1923.45 1147.16C1907.55 1141.28 1894.27 1130.61 1879.46 1122.55C1859.86 1111.88 1839.6 1105.56 1817.39 1103.39C1797.35 1101.43 1777.53 1104.26 1757.72 1107.31C1748.57 1108.61 1739.42 1110.79 1730.06 1111.66C1725.92 1112.1 1712.85 1109.92 1709.58 1112.32L1733.54 1132.79C1733.32 1126.91 1733.11 1121.03 1733.32 1115.15C1733.32 1103.39 1733.32 1091.41 1733.98 1079.65C1734.85 1057.65 1736.37 1035.65 1738.55 1013.87C1741.6 984.473 1711.33 959.427 1684.1 959.427C1652.31 959.427 1632.71 984.473 1629.66 1013.87C1625.3 1057.21 1620.07 1104.26 1626.39 1147.6C1634.01 1198.78 1677.13 1224.26 1726.35 1220.77C1765.56 1217.94 1801.06 1202.05 1836.56 1223.61C1875.98 1247.56 1915.83 1261.07 1962 1263.68C2005.34 1266.29 2049.12 1258.67 2091.59 1251.05C2134.06 1243.42 2178.48 1233.19 2213.77 1204.66C2244.69 1179.83 2266.04 1142.59 2266.47 1102.3C2266.69 1081.39 2259.72 1062.88 2253.19 1043.71C2251.66 1038.92 2251.23 1027.16 2249.27 1033.48C2251.44 1026.51 2260.16 1018.23 2264.51 1012.57C2313.95 949.409 2366.22 879.063 2358.81 793.907C2355.33 753.398 2341.39 714.414 2311.99 685.448C2282.59 656.482 2245.56 643.85 2208.1 632.307C2173.48 621.635 2151.04 611.617 2126.22 584.611C2097.03 553.032 2064.58 528.204 2020.81 521.888C1935.87 509.692 1863.56 559.13 1804.54 614.231C1772.53 644.286 1742.47 674.341 1701.96 692.853C1657.1 713.325 1619.64 733.362 1590.89 774.742C1536.22 853.799 1554.95 968.575 1630.53 1027.38C1653.61 1045.45 1684.97 1050.03 1707.62 1027.38C1726.35 1008.65 1730.93 968.574 1707.62 950.28L1707.19 950.716Z" fill="#F9F5E1"/>
<path d="M1664.07 1099.25C1683.23 1132.35 1712.42 1154.57 1748.79 1165.89C1790.82 1178.96 1823.92 1137.8 1815.87 1098.81C1807.81 1059.83 1788.21 1031.08 1765.77 1001.46C1748.13 977.94 1718.73 965.961 1691.29 981.86C1665.81 996.887 1657.1 1030.86 1671.69 1056.34C1689.77 1087.92 1712.85 1116.45 1740.29 1140.19C1772.96 1168.51 1836.56 1152.39 1833.29 1101.64C1830.24 1054.6 1806.5 1013.87 1786.25 972.277C1765.99 930.679 1745.08 890.606 1723.3 850.532C1698.91 805.232 1616.15 823.309 1621.82 877.974C1628.13 938.737 1652.96 991.66 1683.45 1043.93C1709.58 1088.79 1742.47 1135.4 1790.38 1158.92C1821.09 1173.95 1858.77 1169.38 1878.15 1138.89C1897.54 1108.4 1886.86 1077.9 1874.01 1048.29C1848.53 990.136 1822.62 932.421 1796.92 874.489C1784.94 847.484 1775.57 810.677 1754.23 789.334C1727.01 762.11 1678.66 767.337 1659.06 800.877C1629.87 850.75 1672.56 931.333 1694.34 976.633C1719.17 1028.68 1751.18 1078.56 1789.08 1122.12C1807.59 1143.02 1830.67 1165.89 1857.68 1175.26C1893.18 1187.45 1929.12 1172.86 1946.1 1139.76C1964.62 1103.6 1946.76 1068.98 1932.6 1035.22C1918.44 1001.46 1904.94 970.099 1891.22 937.648C1862.25 869.262 1833.29 801.094 1804.32 732.708C1782.54 681.31 1701.74 709.623 1702.83 760.15C1704.36 837.683 1735.72 916.959 1769.91 985.562C1804.1 1054.17 1847.44 1121.68 1910.17 1163.93C1944.36 1187.02 1991.19 1201.61 2024.07 1167.2C2054.13 1135.84 2043.02 1089.88 2031.69 1053.29C2007.3 973.802 1974.2 896.051 1945.23 818.082C1930.42 778.009 1915.39 737.935 1900.59 697.862C1885.78 657.789 1862.47 612.271 1810.64 626.645C1724.18 650.384 1773.18 792.601 1791.04 849.444C1812.38 917.612 1842.22 984.691 1884.03 1042.84C1921.06 1094.02 1995.98 1196.6 2069.59 1149.78C2114.02 1121.46 2105.31 1068.1 2091.37 1025.85C2076.12 979.464 2055.65 934.382 2037.36 889.081C2019.06 843.781 2001.86 801.748 1984 758.19C1966.14 714.632 1954.6 656.7 1903.63 641.89C1877.5 634.267 1841.56 651.037 1836.56 680.003C1826.75 736.846 1842.44 792.6 1860.73 846.177C1879.02 899.753 1899.93 947.013 1926.5 993.838C1953.07 1040.66 1982.91 1086.4 2020.8 1123.42C2040.19 1142.37 2062.84 1160.88 2090.93 1162.63C2126.43 1165.02 2155.18 1143.24 2165.42 1109.27C2180.44 1059.18 2153.22 997.323 2137.1 950.28C2117.72 893.873 2098.34 837.465 2078.74 781.275C2070.02 756.447 2061.31 731.619 2052.38 707.009C2042.8 680.221 2035.4 647.77 2020.37 623.378C2003.16 595.719 1965.49 580.473 1935.43 597.897C1905.38 615.32 1899.06 648.859 1898.19 680.874C1896.45 735.322 1912.56 793.472 1929.55 844.652C1946.54 895.833 1966.79 943.311 1994.67 987.304C2019.5 1026.29 2058.7 1080.74 2105.96 1093.15C2135.58 1100.99 2168.9 1086.18 2185.24 1061.14C2201.57 1036.09 2202.01 1007.12 2197.87 978.375C2190.24 924.799 2168.9 872.529 2150.39 822.002C2130.35 767.555 2109.44 713.325 2086.36 660.184C2066.32 613.36 2023.85 543.885 1964.62 588.749C1918.88 623.378 1928.46 695.031 1941.75 742.944C1956.99 796.956 1983.78 846.177 2018.63 889.735C2053.47 933.293 2110.97 987.74 2171.95 969.881C2239.68 950.063 2230.97 851.621 2219.65 798.699C2208.32 745.776 2187.63 656.918 2117.94 659.313C2079.39 660.62 2060.22 692.853 2065.45 728.135C2070.68 763.417 2084.18 797.828 2104.65 827.011C2125.13 856.195 2153.44 890.824 2190.03 895.397C2235.76 900.842 2265.6 860.551 2266.25 818.3C2266.69 779.969 2252.53 740.331 2230.97 709.405C2196.34 659.531 2116.85 689.15 2131.44 751.438C2142.11 796.738 2166.29 837.683 2201.57 868.174C2236.85 898.664 2293.48 878.845 2294.57 829.625C2295.44 786.067 2279.1 746.865 2249.27 715.285C2200.92 664.322 2124.04 741.42 2172.17 792.383C2182.84 803.708 2185.89 814.38 2185.45 829.625L2278.45 791.076C2256.23 771.91 2243.17 751.003 2236.42 722.472L2136.89 764.506C2143.42 773.871 2149.3 783.236 2153 794.343C2154.53 798.916 2154.96 803.926 2156.71 808.499C2162.37 822.873 2145.16 820.478 2164.55 802.401L2188.5 788.463L2183.06 789.769H2212.02C2220.73 794.778 2220.95 793.907 2212.46 787.156C2208.32 783.236 2204.62 779.098 2200.92 774.742C2195.91 768.426 2191.77 761.457 2187.85 754.487C2178.27 737.282 2173.91 718.77 2170.86 699.387L2118.37 768.208H2115.54C2107.48 763.635 2099.43 759.061 2091.59 754.27C2100.95 762.328 2109.01 801.312 2112.93 818.082C2115.54 829.189 2117.72 840.079 2118.59 851.404C2119.03 859.462 2118.16 867.302 2118.37 875.36C2118.37 884.943 2113.15 884.072 2119.46 878.845L2143.42 864.907C2155.83 862.293 2145.38 862.075 2137.98 856.631C2128.83 849.879 2120.77 840.732 2113.15 832.456C2097.47 815.469 2084.62 796.956 2073.29 776.92C2062.84 758.19 2054.56 738.806 2048.46 718.116C2045.41 707.88 2042.15 697.209 2040.84 686.537C2040.19 681.528 2041.06 676.083 2040.19 671.074C2038.88 664.105 2045.85 659.967 2036.7 669.767L2012.75 683.706L2017.76 681.963H1988.79L1993.8 683.27L1969.84 669.332C1964.83 664.976 1973.76 674.994 1975.5 678.043C1979.21 684.577 1982.47 691.328 1985.74 698.298C1991.84 711.365 1997.07 724.868 2002.51 738.153C2015.58 770.604 2028.43 803.272 2040.62 835.941C2052.82 868.609 2063.27 898.446 2073.73 930.026C2078.74 945.053 2083.75 960.298 2087.67 975.761C2089.41 982.949 2091.8 990.571 2092.46 997.976V1001.68C2092.02 1014.53 2092.89 1013.66 2095.29 999.283L2119.25 985.344C2139.28 992.967 2144.94 993.62 2136.23 986.869C2132.97 984.038 2129.7 981.206 2126.65 978.157C2122.51 974.237 2118.59 970.099 2114.67 965.961C2105.09 955.507 2097.03 944.4 2089.41 932.422C2073.29 907.158 2059.79 880.152 2048.68 852.493C2036.49 822.438 2026.9 791.076 2019.28 759.497C2012.31 730.53 2000.99 693.071 2011.22 663.887L1997.28 687.844L2002.51 683.488L1949.59 697.426L1955.47 698.515L1931.51 684.577C1924.11 676.736 1935.43 699.822 1936.08 701.347C1939.13 709.623 1941.96 717.899 1945.01 725.957C1951.55 744.033 1958.08 762.328 1964.4 780.404C1977.25 816.775 1989.88 853.146 2002.51 889.517C2015.14 925.888 2027.56 961.387 2039.53 997.54C2047.38 1020.63 2068.72 1063.1 2058.92 1086.83L2072.86 1062.88L2068.06 1068.1L2092.02 1054.17V1053.73C2101.17 1056.13 2110.32 1058.74 2119.46 1061.14C2092.89 1049.37 2073.29 1018.67 2057.18 995.363C2036.49 965.308 2017.76 933.728 2001.42 901.06C1986.39 871.005 1973.98 840.079 1963.74 808.282C1954.38 779.315 1937.39 739.895 1942.62 708.969L1875.54 747.083L1881.64 748.825L1857.68 734.886C1862.47 739.024 1867.92 758.408 1871.62 767.337C1878.59 784.107 1885.34 800.877 1892.09 817.646C1905.16 849.444 1918.01 881.459 1931.08 913.256C1944.14 945.053 1956.99 976.415 1969.62 1008.21C1976.16 1024.76 1999.68 1069.41 1994.67 1083.35L2008.61 1059.39H2008.83C2017.97 1057.22 2027.12 1054.6 2036.27 1052.21C2042.8 1055.69 2043.89 1056.34 2039.75 1054.6L2033.22 1048.72C2025.38 1042.19 2018.41 1034.56 2011.44 1027.38C2000.77 1016.05 1990.31 1004.29 1980.95 991.878C1959.17 962.912 1941.09 930.897 1925.63 898.228C1911.47 867.956 1900.37 836.376 1891.22 804.143C1882.73 774.96 1863.13 728.135 1873.36 698.515L1859.42 722.472L1864 718.116L1825.45 734.015H1830.46C1821.31 731.402 1812.16 729.006 1803.02 726.392L1807.37 729.441L1787.77 709.84C1796.48 721.601 1799.97 738.371 1805.19 752.309C1811.94 770.604 1818.91 789.116 1825.67 807.41C1839.39 844.217 1852.89 880.805 1866.61 917.612C1880.33 954.418 1893.83 991.007 1907.55 1027.81C1913.22 1043.06 1919.1 1058.3 1924.11 1073.77C1927.16 1082.91 1929.55 1092.06 1932.16 1101.21C1937.39 1119.94 1929.33 1106 1942.84 1094.67L1966.79 1080.74L1960.04 1082.26H1989.01C1963.53 1077.9 1940.88 1050.03 1925.63 1031.08C1905.38 1005.82 1888.39 977.068 1872.93 948.538C1843.31 893.219 1813.25 824.833 1811.94 761.021L1710.46 788.463C1733.98 843.781 1757.28 899.1 1780.8 954.418C1791.91 980.553 1802.8 1006.47 1813.91 1032.6C1820 1047.2 1826.32 1061.79 1832.42 1076.6C1835.03 1082.7 1836.99 1090.54 1840.69 1096.2C1853.32 1115.8 1822.83 1098.16 1859.64 1079.43L1887.08 1072.02C1893.83 1072.02 1892.09 1074.42 1889.26 1069.63C1886.43 1064.84 1879.68 1060.7 1875.76 1056.78C1868.13 1048.94 1860.95 1040.45 1854.2 1031.73C1837.86 1010.61 1823.49 987.74 1810.42 964.654C1798.44 943.529 1787.12 921.75 1777.75 899.317C1773.18 888.428 1769.26 877.321 1765.99 866.213C1764.25 860.333 1762.51 854.235 1761.2 848.137C1760.55 845.088 1759.89 842.039 1759.24 838.99C1758.15 831.149 1757.93 832.892 1758.59 844.217L1733.54 876.667L1737.03 874.054L1694.99 879.498L1701.09 881.677L1668.64 856.631C1693.9 896.05 1709.37 945.707 1728.53 988.611C1738.55 1011.04 1748.57 1033.69 1758.59 1056.13C1762.94 1065.71 1767.08 1075.51 1771.44 1085.09C1774.27 1091.63 1777.1 1097.94 1779.93 1104.48C1782.76 1113.4 1784.29 1106.87 1784.07 1085.31L1803.67 1065.71L1799.31 1067.89L1826.75 1060.48L1820.66 1060.05L1848.1 1067.45C1814.78 1052.86 1794.96 1020.63 1777.32 990.354C1757.5 956.596 1734.63 919.136 1730.49 879.281L1629 906.722C1647.51 940.915 1665.59 975.544 1683.01 1010.39C1691.29 1026.94 1699.57 1043.71 1707.62 1060.48C1713.94 1073.55 1723.3 1087.92 1724.39 1102.95L1817.39 1064.4C1796.26 1046.11 1779.71 1026.72 1765.77 1002.55L1671.69 1057.43C1688.46 1079.65 1705.01 1100.99 1710.67 1128.65L1777.75 1061.57C1767.95 1058.52 1763.38 1054.17 1758.15 1044.8C1723.09 984.256 1629 1038.92 1664.07 1099.68V1099.25Z" fill="#F9F5E1"/>
<path d="M1949.81 1046.98C2034 1046.98 2102.26 978.723 2102.26 894.526C2102.26 810.329 2034 742.073 1949.81 742.073C1865.61 742.073 1797.35 810.329 1797.35 894.526C1797.35 978.723 1865.61 1046.98 1949.81 1046.98Z" fill="white"/>
</g>
<defs>
<clipPath id="clip0_118_2528">
<rect width="5136" height="1417" fill="white"/>
</clipPath>
</defs>
</svg>
